ISO-10303-21;
HEADER;
/* Generated by software containing ST-Developer
 * from STEP Tools, Inc. (www.steptools.com) 
 */
/* OPTION: using custom renumber hook */

FILE_DESCRIPTION(
/* description */ ('STEP AP242 Edition 2',
'CAx-IF Rec.Pracs.---Representation and Presentation of Product Manufa
cturing Information (PMI)---4.0---2014-10-13',
'CAx-IF Rec.Pracs.---3D Tessellated Geometry---0.4---2014-09-14','2;1',
'CAx-IF Rec.Pracs.---User Defined Attributes---1.5---2016-08-15'),
/* implementation_level */ '2;1');

FILE_NAME(
/* name */ 
'OMX-AI_D405_Camera_Frame_Lightweight - OMX-AI_D405_Camera_Frame_Light
weight',
/* time_stamp */ '2026-09-15T10:39:10Z',
/* author */ (''),
/* organization */ (''),
/* preprocessor_version */ 'ST-DEVELOPER v20',
/* originating_system */ 'ONSHAPE BY PTC INC, 1.220',
/* authorisation */ '  ');

FILE_SCHEMA (('AP242_MANAGED_MODEL_BASED_3D_ENGINEERING_MIM_LF { 1 0 10303 442 3 1 4 }'));
ENDSEC;

DATA;
#10=SHAPE_REPRESENTATION_RELATIONSHIP('','',#1135,#11);
#11=ADVANCED_BREP_SHAPE_REPRESENTATION('',(#1133),#2019);
#12=(
BOUNDED_SURFACE()
B_SPLINE_SURFACE(3,2,((#1973,#1974,#1975),(#1976,#1977,#1978),(#1979,#1980,
#1981),(#1982,#1983,#1984)),.UNSPECIFIED.,.F.,.F.,.F.)
B_SPLINE_SURFACE_WITH_KNOTS((4,4),(3,3),(4.0688878715914,4.71238898038469),
(0.,1.),.PIECEWISE_BEZIER_KNOTS.)
GEOMETRIC_REPRESENTATION_ITEM()
RATIONAL_B_SPLINE_SURFACE(((1.,0.806225774829858,1.),(1.,0.779620274153967,
1.),(1.,0.745025455361429,1.),(1.,0.707106781186548,1.)))
REPRESENTATION_ITEM('')
SURFACE()
);
#13=(
BOUNDED_SURFACE()
B_SPLINE_SURFACE(3,2,((#1996,#1997,#1998),(#1999,#2000,#2001),(#2002,#2003,
#2004),(#2005,#2006,#2007)),.UNSPECIFIED.,.F.,.F.,.F.)
B_SPLINE_SURFACE_WITH_KNOTS((4,4),(3,3),(1.5707963267949,2.21429743558818),
(0.,1.),.PIECEWISE_BEZIER_KNOTS.)
GEOMETRIC_REPRESENTATION_ITEM()
RATIONAL_B_SPLINE_SURFACE(((1.,0.707106781186548,1.),(1.,0.745025455361199,
1.),(1.,0.779620274153954,1.),(1.,0.806225774829857,1.)))
REPRESENTATION_ITEM('')
SURFACE()
);
#14=SPHERICAL_SURFACE('',#1260,0.0005);
#15=SPHERICAL_SURFACE('',#1264,0.0005);
#16=SPHERICAL_SURFACE('',#1284,0.0005);
#17=SPHERICAL_SURFACE('',#1286,0.0005);
#18=TOROIDAL_SURFACE('',#1230,0.001553,0.0005);
#19=TOROIDAL_SURFACE('',#1232,0.0043,0.0005);
#20=TOROIDAL_SURFACE('',#1236,0.0043,0.0005);
#21=TOROIDAL_SURFACE('',#1238,0.001553,0.0005);
#22=TOROIDAL_SURFACE('',#1242,0.0035,0.0005);
#23=TOROIDAL_SURFACE('',#1249,0.0035,0.0005);
#24=TOROIDAL_SURFACE('',#1251,0.0035,0.0005);
#25=TOROIDAL_SURFACE('',#1257,0.0035,0.0005);
#26=TOROIDAL_SURFACE('',#1271,0.0015,0.0005);
#27=TOROIDAL_SURFACE('',#1275,0.0015,0.0005);
#28=B_SPLINE_CURVE_WITH_KNOTS('',3,(#1924,#1925,#1926,#1927),
 .UNSPECIFIED.,.F.,.F.,(4,4),(0.,0.000277577027794922),.UNSPECIFIED.);
#29=B_SPLINE_CURVE_WITH_KNOTS('',3,(#1928,#1929,#1930,#1931),
 .UNSPECIFIED.,.F.,.F.,(4,4),(0.,0.000276529410612813),.UNSPECIFIED.);
#30=ELLIPSE('',#1200,0.00115470053837926,0.001);
#31=ELLIPSE('',#1203,0.00115470053837926,0.001);
#32=ELLIPSE('',#1209,0.000577350269189632,0.0005);
#33=ELLIPSE('',#1210,0.000577350269189632,0.0005);
#34=ELLIPSE('',#1211,0.000577350269189632,0.0005);
#35=ELLIPSE('',#1212,0.000577350269189632,0.0005);
#36=ELLIPSE('',#1223,0.000763762615825993,0.0005);
#37=ELLIPSE('',#1225,0.000763762615825993,0.0005);
#38=CIRCLE('',#1140,0.00105300000000002);
#39=CIRCLE('',#1141,0.00105300000000002);
#40=CIRCLE('',#1143,0.0048);
#41=CIRCLE('',#1144,0.0048);
#42=CIRCLE('',#1147,0.0048);
#43=CIRCLE('',#1148,0.0048);
#44=CIRCLE('',#1150,0.003);
#45=CIRCLE('',#1151,0.003);
#46=CIRCLE('',#1154,0.003);
#47=CIRCLE('',#1155,0.003);
#48=CIRCLE('',#1158,0.003);
#49=CIRCLE('',#1159,0.003);
#50=CIRCLE('',#1162,0.003);
#51=CIRCLE('',#1163,0.003);
#52=CIRCLE('',#1165,0.0018);
#53=CIRCLE('',#1166,0.0018);
#54=CIRCLE('',#1168,0.00105300000000001);
#55=CIRCLE('',#1169,0.00105300000000001);
#56=CIRCLE('',#1172,0.0018);
#57=CIRCLE('',#1173,0.0018);
#58=CIRCLE('',#1175,0.0035);
#59=CIRCLE('',#1176,0.0035);
#60=CIRCLE('',#1177,0.0035);
#61=CIRCLE('',#1178,0.0035);
#62=CIRCLE('',#1179,0.001553);
#63=CIRCLE('',#1180,0.0043);
#64=CIRCLE('',#1181,0.0043);
#65=CIRCLE('',#1182,0.001553);
#66=CIRCLE('',#1184,0.0005);
#67=CIRCLE('',#1185,0.0005);
#68=CIRCLE('',#1188,0.002);
#69=CIRCLE('',#1189,0.002);
#70=CIRCLE('',#1192,0.002);
#71=CIRCLE('',#1193,0.002);
#72=CIRCLE('',#1196,0.0012);
#73=CIRCLE('',#1197,0.0012);
#74=CIRCLE('',#1198,0.0012);
#75=CIRCLE('',#1199,0.00165);
#76=CIRCLE('',#1201,0.0015);
#77=CIRCLE('',#1202,0.0015);
#78=CIRCLE('',#1205,0.0012);
#79=CIRCLE('',#1206,0.0012);
#80=CIRCLE('',#1207,0.0012);
#81=CIRCLE('',#1208,0.00165);
#82=CIRCLE('',#1220,0.0005);
#83=CIRCLE('',#1221,0.0005);
#84=CIRCLE('',#1228,0.0005);
#85=CIRCLE('',#1229,0.0005);
#86=CIRCLE('',#1231,0.0005);
#87=CIRCLE('',#1233,0.0005);
#88=CIRCLE('',#1235,0.0005);
#89=CIRCLE('',#1237,0.0005);
#90=CIRCLE('',#1239,0.0005);
#91=CIRCLE('',#1241,0.0005);
#92=CIRCLE('',#1243,0.0005);
#93=CIRCLE('',#1244,0.0005);
#94=CIRCLE('',#1246,0.0005);
#95=CIRCLE('',#1248,0.0005);
#96=CIRCLE('',#1250,0.0005);
#97=CIRCLE('',#1252,0.0005);
#98=CIRCLE('',#1254,0.0005);
#99=CIRCLE('',#1256,0.0005);
#100=CIRCLE('',#1259,0.0005);
#101=CIRCLE('',#1261,0.0005);
#102=CIRCLE('',#1263,0.0005);
#103=CIRCLE('',#1265,0.0005);
#104=CIRCLE('',#1267,0.0005);
#105=CIRCLE('',#1268,0.0005);
#106=CIRCLE('',#1270,0.0005);
#107=CIRCLE('',#1272,0.0005);
#108=CIRCLE('',#1274,0.0005);
#109=CIRCLE('',#1276,0.0005);
#110=CIRCLE('',#1278,0.0005);
#111=CIRCLE('',#1279,0.0005);
#112=CIRCLE('',#1281,0.0005);
#113=CIRCLE('',#1283,0.0005);
#114=CIRCLE('',#1285,0.0005);
#115=CIRCLE('',#1287,0.0005);
#116=CYLINDRICAL_SURFACE('',#1139,0.00105300000000002);
#117=CYLINDRICAL_SURFACE('',#1142,0.0048);
#118=CYLINDRICAL_SURFACE('',#1146,0.0048);
#119=CYLINDRICAL_SURFACE('',#1149,0.003);
#120=CYLINDRICAL_SURFACE('',#1153,0.003);
#121=CYLINDRICAL_SURFACE('',#1157,0.003);
#122=CYLINDRICAL_SURFACE('',#1161,0.003);
#123=CYLINDRICAL_SURFACE('',#1164,0.0018);
#124=CYLINDRICAL_SURFACE('',#1167,0.00105300000000001);
#125=CYLINDRICAL_SURFACE('',#1171,0.0018);
#126=CYLINDRICAL_SURFACE('',#1187,0.002);
#127=CYLINDRICAL_SURFACE('',#1191,0.002);
#128=CYLINDRICAL_SURFACE('',#1213,0.00165);
#129=CYLINDRICAL_SURFACE('',#1214,0.0012);
#130=CYLINDRICAL_SURFACE('',#1215,0.0012);
#131=CYLINDRICAL_SURFACE('',#1216,0.0012);
#132=CYLINDRICAL_SURFACE('',#1219,0.0005);
#133=CYLINDRICAL_SURFACE('',#1222,0.0005);
#134=CYLINDRICAL_SURFACE('',#1224,0.0005);
#135=CYLINDRICAL_SURFACE('',#1226,0.0005);
#136=CYLINDRICAL_SURFACE('',#1227,0.0005);
#137=CYLINDRICAL_SURFACE('',#1234,0.0005);
#138=CYLINDRICAL_SURFACE('',#1240,0.0005);
#139=CYLINDRICAL_SURFACE('',#1245,0.0005);
#140=CYLINDRICAL_SURFACE('',#1247,0.0005);
#141=CYLINDRICAL_SURFACE('',#1253,0.0005);
#142=CYLINDRICAL_SURFACE('',#1255,0.0005);
#143=CYLINDRICAL_SURFACE('',#1258,0.0005);
#144=CYLINDRICAL_SURFACE('',#1262,0.0005);
#145=CYLINDRICAL_SURFACE('',#1266,0.0005);
#146=CYLINDRICAL_SURFACE('',#1269,0.0005);
#147=CYLINDRICAL_SURFACE('',#1273,0.0005);
#148=CYLINDRICAL_SURFACE('',#1277,0.0005);
#149=CYLINDRICAL_SURFACE('',#1280,0.0005);
#150=CYLINDRICAL_SURFACE('',#1282,0.0005);
#151=CYLINDRICAL_SURFACE('',#1288,0.0005);
#152=ORIENTED_EDGE('',*,*,#468,.F.);
#153=ORIENTED_EDGE('',*,*,#469,.T.);
#154=ORIENTED_EDGE('',*,*,#470,.T.);
#155=ORIENTED_EDGE('',*,*,#471,.T.);
#156=ORIENTED_EDGE('',*,*,#472,.T.);
#157=ORIENTED_EDGE('',*,*,#473,.T.);
#158=ORIENTED_EDGE('',*,*,#474,.T.);
#159=ORIENTED_EDGE('',*,*,#475,.F.);
#160=ORIENTED_EDGE('',*,*,#476,.F.);
#161=ORIENTED_EDGE('',*,*,#477,.T.);
#162=ORIENTED_EDGE('',*,*,#475,.T.);
#163=ORIENTED_EDGE('',*,*,#478,.F.);
#164=ORIENTED_EDGE('',*,*,#479,.F.);
#165=ORIENTED_EDGE('',*,*,#480,.T.);
#166=ORIENTED_EDGE('',*,*,#476,.T.);
#167=ORIENTED_EDGE('',*,*,#481,.T.);
#168=ORIENTED_EDGE('',*,*,#482,.F.);
#169=ORIENTED_EDGE('',*,*,#483,.T.);
#170=ORIENTED_EDGE('',*,*,#479,.T.);
#171=ORIENTED_EDGE('',*,*,#484,.F.);
#172=ORIENTED_EDGE('',*,*,#485,.F.);
#173=ORIENTED_EDGE('',*,*,#486,.T.);
#174=ORIENTED_EDGE('',*,*,#482,.T.);
#175=ORIENTED_EDGE('',*,*,#487,.F.);
#176=ORIENTED_EDGE('',*,*,#488,.F.);
#177=ORIENTED_EDGE('',*,*,#489,.T.);
#178=ORIENTED_EDGE('',*,*,#490,.T.);
#179=ORIENTED_EDGE('',*,*,#491,.F.);
#180=ORIENTED_EDGE('',*,*,#492,.F.);
#181=ORIENTED_EDGE('',*,*,#493,.T.);
#182=ORIENTED_EDGE('',*,*,#488,.T.);
#183=ORIENTED_EDGE('',*,*,#494,.T.);
#184=ORIENTED_EDGE('',*,*,#495,.F.);
#185=ORIENTED_EDGE('',*,*,#496,.T.);
#186=ORIENTED_EDGE('',*,*,#492,.T.);
#187=ORIENTED_EDGE('',*,*,#497,.F.);
#188=ORIENTED_EDGE('',*,*,#498,.F.);
#189=ORIENTED_EDGE('',*,*,#499,.T.);
#190=ORIENTED_EDGE('',*,*,#495,.T.);
#191=ORIENTED_EDGE('',*,*,#500,.F.);
#192=ORIENTED_EDGE('',*,*,#501,.F.);
#193=ORIENTED_EDGE('',*,*,#502,.T.);
#194=ORIENTED_EDGE('',*,*,#498,.T.);
#195=ORIENTED_EDGE('',*,*,#503,.F.);
#196=ORIENTED_EDGE('',*,*,#504,.F.);
#197=ORIENTED_EDGE('',*,*,#505,.T.);
#198=ORIENTED_EDGE('',*,*,#501,.T.);
#199=ORIENTED_EDGE('',*,*,#506,.F.);
#200=ORIENTED_EDGE('',*,*,#507,.F.);
#201=ORIENTED_EDGE('',*,*,#508,.T.);
#202=ORIENTED_EDGE('',*,*,#504,.T.);
#203=ORIENTED_EDGE('',*,*,#509,.F.);
#204=ORIENTED_EDGE('',*,*,#510,.T.);
#205=ORIENTED_EDGE('',*,*,#511,.F.);
#206=ORIENTED_EDGE('',*,*,#471,.F.);
#207=ORIENTED_EDGE('',*,*,#512,.T.);
#208=ORIENTED_EDGE('',*,*,#485,.T.);
#209=ORIENTED_EDGE('',*,*,#513,.F.);
#210=ORIENTED_EDGE('',*,*,#490,.F.);
#211=ORIENTED_EDGE('',*,*,#514,.T.);
#212=ORIENTED_EDGE('',*,*,#507,.T.);
#213=ORIENTED_EDGE('',*,*,#515,.T.);
#214=ORIENTED_EDGE('',*,*,#516,.T.);
#215=ORIENTED_EDGE('',*,*,#517,.F.);
#216=ORIENTED_EDGE('',*,*,#518,.T.);
#217=ORIENTED_EDGE('',*,*,#519,.T.);
#218=ORIENTED_EDGE('',*,*,#520,.T.);
#219=ORIENTED_EDGE('',*,*,#521,.T.);
#220=ORIENTED_EDGE('',*,*,#522,.T.);
#221=ORIENTED_EDGE('',*,*,#523,.T.);
#222=ORIENTED_EDGE('',*,*,#524,.T.);
#223=ORIENTED_EDGE('',*,*,#525,.T.);
#224=ORIENTED_EDGE('',*,*,#526,.T.);
#225=ORIENTED_EDGE('',*,*,#527,.T.);
#226=ORIENTED_EDGE('',*,*,#528,.T.);
#227=ORIENTED_EDGE('',*,*,#529,.T.);
#228=ORIENTED_EDGE('',*,*,#530,.T.);
#229=ORIENTED_EDGE('',*,*,#531,.T.);
#230=ORIENTED_EDGE('',*,*,#532,.T.);
#231=ORIENTED_EDGE('',*,*,#533,.T.);
#232=ORIENTED_EDGE('',*,*,#534,.T.);
#233=ORIENTED_EDGE('',*,*,#535,.T.);
#234=ORIENTED_EDGE('',*,*,#510,.F.);
#235=ORIENTED_EDGE('',*,*,#516,.F.);
#236=ORIENTED_EDGE('',*,*,#491,.T.);
#237=ORIENTED_EDGE('',*,*,#515,.F.);
#238=ORIENTED_EDGE('',*,*,#509,.T.);
#239=ORIENTED_EDGE('',*,*,#506,.T.);
#240=ORIENTED_EDGE('',*,*,#503,.T.);
#241=ORIENTED_EDGE('',*,*,#500,.T.);
#242=ORIENTED_EDGE('',*,*,#497,.T.);
#243=ORIENTED_EDGE('',*,*,#494,.F.);
#244=ORIENTED_EDGE('',*,*,#536,.T.);
#245=ORIENTED_EDGE('',*,*,#537,.T.);
#246=ORIENTED_EDGE('',*,*,#468,.T.);
#247=ORIENTED_EDGE('',*,*,#513,.T.);
#248=ORIENTED_EDGE('',*,*,#487,.T.);
#249=ORIENTED_EDGE('',*,*,#484,.T.);
#250=ORIENTED_EDGE('',*,*,#481,.F.);
#251=ORIENTED_EDGE('',*,*,#478,.T.);
#252=ORIENTED_EDGE('',*,*,#474,.F.);
#253=ORIENTED_EDGE('',*,*,#538,.T.);
#254=ORIENTED_EDGE('',*,*,#511,.T.);
#255=ORIENTED_EDGE('',*,*,#517,.T.);
#256=ORIENTED_EDGE('',*,*,#539,.T.);
#257=ORIENTED_EDGE('',*,*,#540,.T.);
#258=ORIENTED_EDGE('',*,*,#541,.F.);
#259=ORIENTED_EDGE('',*,*,#542,.T.);
#260=ORIENTED_EDGE('',*,*,#541,.T.);
#261=ORIENTED_EDGE('',*,*,#543,.T.);
#262=ORIENTED_EDGE('',*,*,#544,.F.);
#263=ORIENTED_EDGE('',*,*,#545,.T.);
#264=ORIENTED_EDGE('',*,*,#544,.T.);
#265=ORIENTED_EDGE('',*,*,#546,.T.);
#266=ORIENTED_EDGE('',*,*,#547,.F.);
#267=ORIENTED_EDGE('',*,*,#548,.T.);
#268=ORIENTED_EDGE('',*,*,#547,.T.);
#269=ORIENTED_EDGE('',*,*,#549,.T.);
#270=ORIENTED_EDGE('',*,*,#550,.F.);
#271=ORIENTED_EDGE('',*,*,#551,.T.);
#272=ORIENTED_EDGE('',*,*,#550,.T.);
#273=ORIENTED_EDGE('',*,*,#552,.T.);
#274=ORIENTED_EDGE('',*,*,#553,.T.);
#275=ORIENTED_EDGE('',*,*,#554,.T.);
#276=ORIENTED_EDGE('',*,*,#555,.T.);
#277=ORIENTED_EDGE('',*,*,#556,.T.);
#278=ORIENTED_EDGE('',*,*,#557,.T.);
#279=ORIENTED_EDGE('',*,*,#558,.T.);
#280=ORIENTED_EDGE('',*,*,#559,.T.);
#281=ORIENTED_EDGE('',*,*,#560,.T.);
#282=ORIENTED_EDGE('',*,*,#561,.T.);
#283=ORIENTED_EDGE('',*,*,#562,.T.);
#284=ORIENTED_EDGE('',*,*,#563,.T.);
#285=ORIENTED_EDGE('',*,*,#564,.T.);
#286=ORIENTED_EDGE('',*,*,#565,.T.);
#287=ORIENTED_EDGE('',*,*,#566,.T.);
#288=ORIENTED_EDGE('',*,*,#567,.T.);
#289=ORIENTED_EDGE('',*,*,#568,.T.);
#290=ORIENTED_EDGE('',*,*,#569,.F.);
#291=ORIENTED_EDGE('',*,*,#570,.F.);
#292=ORIENTED_EDGE('',*,*,#571,.F.);
#293=ORIENTED_EDGE('',*,*,#572,.F.);
#294=ORIENTED_EDGE('',*,*,#573,.F.);
#295=ORIENTED_EDGE('',*,*,#574,.T.);
#296=ORIENTED_EDGE('',*,*,#575,.T.);
#297=ORIENTED_EDGE('',*,*,#576,.T.);
#298=ORIENTED_EDGE('',*,*,#577,.T.);
#299=ORIENTED_EDGE('',*,*,#578,.T.);
#300=ORIENTED_EDGE('',*,*,#542,.F.);
#301=ORIENTED_EDGE('',*,*,#545,.F.);
#302=ORIENTED_EDGE('',*,*,#548,.F.);
#303=ORIENTED_EDGE('',*,*,#551,.F.);
#304=ORIENTED_EDGE('',*,*,#554,.F.);
#305=ORIENTED_EDGE('',*,*,#579,.T.);
#306=ORIENTED_EDGE('',*,*,#558,.F.);
#307=ORIENTED_EDGE('',*,*,#572,.T.);
#308=ORIENTED_EDGE('',*,*,#557,.F.);
#309=ORIENTED_EDGE('',*,*,#571,.T.);
#310=ORIENTED_EDGE('',*,*,#556,.F.);
#311=ORIENTED_EDGE('',*,*,#570,.T.);
#312=ORIENTED_EDGE('',*,*,#555,.F.);
#313=ORIENTED_EDGE('',*,*,#569,.T.);
#314=ORIENTED_EDGE('',*,*,#580,.T.);
#315=ORIENTED_EDGE('',*,*,#581,.T.);
#316=ORIENTED_EDGE('',*,*,#573,.T.);
#317=ORIENTED_EDGE('',*,*,#582,.T.);
#318=ORIENTED_EDGE('',*,*,#583,.T.);
#319=ORIENTED_EDGE('',*,*,#584,.T.);
#320=ORIENTED_EDGE('',*,*,#585,.T.);
#321=ORIENTED_EDGE('',*,*,#586,.T.);
#322=ORIENTED_EDGE('',*,*,#577,.F.);
#323=ORIENTED_EDGE('',*,*,#587,.T.);
#324=ORIENTED_EDGE('',*,*,#528,.F.);
#325=ORIENTED_EDGE('',*,*,#588,.T.);
#326=ORIENTED_EDGE('',*,*,#559,.F.);
#327=ORIENTED_EDGE('',*,*,#589,.T.);
#328=ORIENTED_EDGE('',*,*,#553,.F.);
#329=ORIENTED_EDGE('',*,*,#590,.T.);
#330=ORIENTED_EDGE('',*,*,#582,.F.);
#331=ORIENTED_EDGE('',*,*,#579,.F.);
#332=ORIENTED_EDGE('',*,*,#586,.F.);
#333=ORIENTED_EDGE('',*,*,#591,.T.);
#334=ORIENTED_EDGE('',*,*,#539,.F.);
#335=ORIENTED_EDGE('',*,*,#578,.F.);
#336=ORIENTED_EDGE('',*,*,#575,.F.);
#337=ORIENTED_EDGE('',*,*,#592,.T.);
#338=ORIENTED_EDGE('',*,*,#536,.F.);
#339=ORIENTED_EDGE('',*,*,#593,.T.);
#340=ORIENTED_EDGE('',*,*,#530,.F.);
#341=ORIENTED_EDGE('',*,*,#594,.T.);
#342=ORIENTED_EDGE('',*,*,#472,.F.);
#343=ORIENTED_EDGE('',*,*,#595,.F.);
#344=ORIENTED_EDGE('',*,*,#595,.T.);
#345=ORIENTED_EDGE('',*,*,#477,.F.);
#346=ORIENTED_EDGE('',*,*,#596,.F.);
#347=ORIENTED_EDGE('',*,*,#531,.F.);
#348=ORIENTED_EDGE('',*,*,#596,.T.);
#349=ORIENTED_EDGE('',*,*,#480,.F.);
#350=ORIENTED_EDGE('',*,*,#597,.F.);
#351=ORIENTED_EDGE('',*,*,#532,.F.);
#352=ORIENTED_EDGE('',*,*,#597,.T.);
#353=ORIENTED_EDGE('',*,*,#483,.F.);
#354=ORIENTED_EDGE('',*,*,#598,.F.);
#355=ORIENTED_EDGE('',*,*,#533,.F.);
#356=ORIENTED_EDGE('',*,*,#598,.T.);
#357=ORIENTED_EDGE('',*,*,#486,.F.);
#358=ORIENTED_EDGE('',*,*,#599,.F.);
#359=ORIENTED_EDGE('',*,*,#534,.F.);
#360=ORIENTED_EDGE('',*,*,#599,.T.);
#361=ORIENTED_EDGE('',*,*,#512,.F.);
#362=ORIENTED_EDGE('',*,*,#600,.F.);
#363=ORIENTED_EDGE('',*,*,#535,.F.);
#364=ORIENTED_EDGE('',*,*,#470,.F.);
#365=ORIENTED_EDGE('',*,*,#601,.T.);
#366=ORIENTED_EDGE('',*,*,#526,.F.);
#367=ORIENTED_EDGE('',*,*,#600,.T.);
#368=ORIENTED_EDGE('',*,*,#602,.F.);
#369=ORIENTED_EDGE('',*,*,#523,.F.);
#370=ORIENTED_EDGE('',*,*,#603,.F.);
#371=ORIENTED_EDGE('',*,*,#496,.F.);
#372=ORIENTED_EDGE('',*,*,#603,.T.);
#373=ORIENTED_EDGE('',*,*,#522,.F.);
#374=ORIENTED_EDGE('',*,*,#604,.F.);
#375=ORIENTED_EDGE('',*,*,#493,.F.);
#376=ORIENTED_EDGE('',*,*,#602,.T.);
#377=ORIENTED_EDGE('',*,*,#499,.F.);
#378=ORIENTED_EDGE('',*,*,#605,.F.);
#379=ORIENTED_EDGE('',*,*,#524,.F.);
#380=ORIENTED_EDGE('',*,*,#604,.T.);
#381=ORIENTED_EDGE('',*,*,#521,.F.);
#382=ORIENTED_EDGE('',*,*,#606,.F.);
#383=ORIENTED_EDGE('',*,*,#489,.F.);
#384=ORIENTED_EDGE('',*,*,#605,.T.);
#385=ORIENTED_EDGE('',*,*,#502,.F.);
#386=ORIENTED_EDGE('',*,*,#607,.F.);
#387=ORIENTED_EDGE('',*,*,#525,.F.);
#388=ORIENTED_EDGE('',*,*,#606,.T.);
#389=ORIENTED_EDGE('',*,*,#520,.F.);
#390=ORIENTED_EDGE('',*,*,#608,.F.);
#391=ORIENTED_EDGE('',*,*,#514,.F.);
#392=ORIENTED_EDGE('',*,*,#607,.T.);
#393=ORIENTED_EDGE('',*,*,#505,.F.);
#394=ORIENTED_EDGE('',*,*,#609,.F.);
#395=ORIENTED_EDGE('',*,*,#518,.F.);
#396=ORIENTED_EDGE('',*,*,#608,.T.);
#397=ORIENTED_EDGE('',*,*,#519,.F.);
#398=ORIENTED_EDGE('',*,*,#609,.T.);
#399=ORIENTED_EDGE('',*,*,#508,.F.);
#400=ORIENTED_EDGE('',*,*,#538,.F.);
#401=ORIENTED_EDGE('',*,*,#473,.F.);
#402=ORIENTED_EDGE('',*,*,#610,.F.);
#403=ORIENTED_EDGE('',*,*,#587,.F.);
#404=ORIENTED_EDGE('',*,*,#576,.F.);
#405=ORIENTED_EDGE('',*,*,#593,.F.);
#406=ORIENTED_EDGE('',*,*,#610,.T.);
#407=ORIENTED_EDGE('',*,*,#594,.F.);
#408=ORIENTED_EDGE('',*,*,#611,.F.);
#409=ORIENTED_EDGE('',*,*,#611,.T.);
#410=ORIENTED_EDGE('',*,*,#529,.F.);
#411=ORIENTED_EDGE('',*,*,#612,.F.);
#412=ORIENTED_EDGE('',*,*,#584,.F.);
#413=ORIENTED_EDGE('',*,*,#612,.T.);
#414=ORIENTED_EDGE('',*,*,#589,.F.);
#415=ORIENTED_EDGE('',*,*,#613,.F.);
#416=ORIENTED_EDGE('',*,*,#613,.T.);
#417=ORIENTED_EDGE('',*,*,#568,.F.);
#418=ORIENTED_EDGE('',*,*,#614,.F.);
#419=ORIENTED_EDGE('',*,*,#585,.F.);
#420=ORIENTED_EDGE('',*,*,#614,.T.);
#421=ORIENTED_EDGE('',*,*,#567,.F.);
#422=ORIENTED_EDGE('',*,*,#615,.F.);
#423=ORIENTED_EDGE('',*,*,#591,.F.);
#424=ORIENTED_EDGE('',*,*,#615,.T.);
#425=ORIENTED_EDGE('',*,*,#566,.F.);
#426=ORIENTED_EDGE('',*,*,#616,.F.);
#427=ORIENTED_EDGE('',*,*,#540,.F.);
#428=ORIENTED_EDGE('',*,*,#616,.T.);
#429=ORIENTED_EDGE('',*,*,#565,.F.);
#430=ORIENTED_EDGE('',*,*,#617,.F.);
#431=ORIENTED_EDGE('',*,*,#543,.F.);
#432=ORIENTED_EDGE('',*,*,#617,.T.);
#433=ORIENTED_EDGE('',*,*,#564,.F.);
#434=ORIENTED_EDGE('',*,*,#618,.F.);
#435=ORIENTED_EDGE('',*,*,#546,.F.);
#436=ORIENTED_EDGE('',*,*,#618,.T.);
#437=ORIENTED_EDGE('',*,*,#563,.F.);
#438=ORIENTED_EDGE('',*,*,#619,.F.);
#439=ORIENTED_EDGE('',*,*,#549,.F.);
#440=ORIENTED_EDGE('',*,*,#619,.T.);
#441=ORIENTED_EDGE('',*,*,#562,.F.);
#442=ORIENTED_EDGE('',*,*,#620,.F.);
#443=ORIENTED_EDGE('',*,*,#552,.F.);
#444=ORIENTED_EDGE('',*,*,#620,.T.);
#445=ORIENTED_EDGE('',*,*,#561,.F.);
#446=ORIENTED_EDGE('',*,*,#621,.F.);
#447=ORIENTED_EDGE('',*,*,#590,.F.);
#448=ORIENTED_EDGE('',*,*,#621,.T.);
#449=ORIENTED_EDGE('',*,*,#560,.F.);
#450=ORIENTED_EDGE('',*,*,#622,.F.);
#451=ORIENTED_EDGE('',*,*,#583,.F.);
#452=ORIENTED_EDGE('',*,*,#574,.F.);
#453=ORIENTED_EDGE('',*,*,#581,.F.);
#454=ORIENTED_EDGE('',*,*,#623,.F.);
#455=ORIENTED_EDGE('',*,*,#469,.F.);
#456=ORIENTED_EDGE('',*,*,#537,.F.);
#457=ORIENTED_EDGE('',*,*,#592,.F.);
#458=ORIENTED_EDGE('',*,*,#622,.T.);
#459=ORIENTED_EDGE('',*,*,#588,.F.);
#460=ORIENTED_EDGE('',*,*,#624,.F.);
#461=ORIENTED_EDGE('',*,*,#601,.F.);
#462=ORIENTED_EDGE('',*,*,#623,.T.);
#463=ORIENTED_EDGE('',*,*,#625,.F.);
#464=ORIENTED_EDGE('',*,*,#624,.T.);
#465=ORIENTED_EDGE('',*,*,#527,.F.);
#466=ORIENTED_EDGE('',*,*,#625,.T.);
#467=ORIENTED_EDGE('',*,*,#580,.F.);
#468=EDGE_CURVE('',#626,#627,#724,.T.);
#469=EDGE_CURVE('',#626,#628,#725,.F.);
#470=EDGE_CURVE('',#628,#629,#726,.T.);
#471=EDGE_CURVE('',#629,#627,#727,.T.);
#472=EDGE_CURVE('',#630,#631,#728,.F.);
#473=EDGE_CURVE('',#631,#632,#729,.F.);
#474=EDGE_CURVE('',#632,#633,#730,.T.);
#475=EDGE_CURVE('',#630,#633,#731,.T.);
#476=EDGE_CURVE('',#634,#635,#732,.T.);
#477=EDGE_CURVE('',#634,#630,#38,.T.);
#478=EDGE_CURVE('',#635,#633,#39,.T.);
#479=EDGE_CURVE('',#636,#637,#733,.T.);
#480=EDGE_CURVE('',#636,#634,#40,.F.);
#481=EDGE_CURVE('',#635,#637,#41,.T.);
#482=EDGE_CURVE('',#638,#639,#734,.T.);
#483=EDGE_CURVE('',#638,#636,#735,.T.);
#484=EDGE_CURVE('',#639,#637,#736,.T.);
#485=EDGE_CURVE('',#640,#641,#737,.T.);
#486=EDGE_CURVE('',#640,#638,#42,.F.);
#487=EDGE_CURVE('',#641,#639,#43,.T.);
#488=EDGE_CURVE('',#642,#643,#738,.T.);
#489=EDGE_CURVE('',#642,#644,#44,.T.);
#490=EDGE_CURVE('',#644,#645,#739,.T.);
#491=EDGE_CURVE('',#643,#645,#45,.T.);
#492=EDGE_CURVE('',#646,#647,#740,.T.);
#493=EDGE_CURVE('',#646,#642,#741,.F.);
#494=EDGE_CURVE('',#643,#647,#742,.T.);
#495=EDGE_CURVE('',#648,#649,#743,.T.);
#496=EDGE_CURVE('',#648,#646,#46,.T.);
#497=EDGE_CURVE('',#649,#647,#47,.T.);
#498=EDGE_CURVE('',#650,#651,#744,.T.);
#499=EDGE_CURVE('',#650,#648,#745,.T.);
#500=EDGE_CURVE('',#651,#649,#746,.T.);
#501=EDGE_CURVE('',#652,#653,#747,.T.);
#502=EDGE_CURVE('',#652,#650,#48,.T.);
#503=EDGE_CURVE('',#653,#651,#49,.T.);
#504=EDGE_CURVE('',#654,#655,#748,.T.);
#505=EDGE_CURVE('',#654,#652,#749,.T.);
#506=EDGE_CURVE('',#655,#653,#750,.T.);
#507=EDGE_CURVE('',#656,#657,#751,.T.);
#508=EDGE_CURVE('',#656,#654,#50,.T.);
#509=EDGE_CURVE('',#657,#655,#51,.T.);
#510=EDGE_CURVE('',#658,#658,#52,.T.);
#511=EDGE_CURVE('',#659,#659,#53,.T.);
#512=EDGE_CURVE('',#629,#640,#54,.T.);
#513=EDGE_CURVE('',#627,#641,#55,.T.);
#514=EDGE_CURVE('',#644,#656,#752,.F.);
#515=EDGE_CURVE('',#657,#645,#753,.T.);
#516=EDGE_CURVE('',#660,#660,#56,.T.);
#517=EDGE_CURVE('',#661,#661,#57,.T.);
#518=EDGE_CURVE('',#662,#663,#754,.F.);
#519=EDGE_CURVE('',#663,#664,#58,.F.);
#520=EDGE_CURVE('',#664,#665,#755,.T.);
#521=EDGE_CURVE('',#665,#666,#59,.F.);
#522=EDGE_CURVE('',#666,#667,#756,.T.);
#523=EDGE_CURVE('',#667,#668,#60,.F.);
#524=EDGE_CURVE('',#668,#669,#757,.F.);
#525=EDGE_CURVE('',#669,#662,#61,.F.);
#526=EDGE_CURVE('',#670,#671,#758,.F.);
#527=EDGE_CURVE('',#671,#672,#759,.F.);
#528=EDGE_CURVE('',#672,#673,#760,.F.);
#529=EDGE_CURVE('',#673,#674,#761,.T.);
#530=EDGE_CURVE('',#674,#675,#762,.T.);
#531=EDGE_CURVE('',#675,#676,#62,.F.);
#532=EDGE_CURVE('',#676,#677,#63,.T.);
#533=EDGE_CURVE('',#677,#678,#763,.F.);
#534=EDGE_CURVE('',#678,#679,#64,.T.);
#535=EDGE_CURVE('',#679,#670,#65,.F.);
#536=EDGE_CURVE('',#680,#681,#764,.T.);
#537=EDGE_CURVE('',#681,#626,#66,.F.);
#538=EDGE_CURVE('',#632,#680,#67,.F.);
#539=EDGE_CURVE('',#682,#683,#765,.F.);
#540=EDGE_CURVE('',#683,#684,#766,.F.);
#541=EDGE_CURVE('',#685,#684,#767,.T.);
#542=EDGE_CURVE('',#685,#682,#768,.F.);
#543=EDGE_CURVE('',#684,#686,#68,.F.);
#544=EDGE_CURVE('',#687,#686,#769,.T.);
#545=EDGE_CURVE('',#687,#685,#69,.F.);
#546=EDGE_CURVE('',#686,#688,#770,.F.);
#547=EDGE_CURVE('',#689,#688,#771,.T.);
#548=EDGE_CURVE('',#689,#687,#772,.F.);
#549=EDGE_CURVE('',#688,#690,#70,.F.);
#550=EDGE_CURVE('',#691,#690,#773,.T.);
#551=EDGE_CURVE('',#691,#689,#71,.F.);
#552=EDGE_CURVE('',#690,#692,#774,.F.);
#553=EDGE_CURVE('',#692,#693,#775,.F.);
#554=EDGE_CURVE('',#693,#691,#776,.T.);
#555=EDGE_CURVE('',#694,#694,#72,.T.);
#556=EDGE_CURVE('',#695,#695,#73,.T.);
#557=EDGE_CURVE('',#696,#696,#74,.T.);
#558=EDGE_CURVE('',#697,#697,#75,.T.);
#559=EDGE_CURVE('',#698,#699,#777,.T.);
#560=EDGE_CURVE('',#699,#700,#778,.T.);
#561=EDGE_CURVE('',#700,#701,#30,.F.);
#562=EDGE_CURVE('',#701,#702,#779,.T.);
#563=EDGE_CURVE('',#702,#703,#76,.T.);
#564=EDGE_CURVE('',#703,#704,#780,.F.);
#565=EDGE_CURVE('',#704,#705,#77,.T.);
#566=EDGE_CURVE('',#705,#706,#781,.F.);
#567=EDGE_CURVE('',#706,#707,#31,.F.);
#568=EDGE_CURVE('',#707,#698,#782,.T.);
#569=EDGE_CURVE('',#708,#708,#78,.T.);
#570=EDGE_CURVE('',#709,#709,#79,.T.);
#571=EDGE_CURVE('',#710,#710,#80,.T.);
#572=EDGE_CURVE('',#711,#711,#81,.T.);
#573=EDGE_CURVE('',#712,#713,#783,.T.);
#574=EDGE_CURVE('',#712,#714,#32,.T.);
#575=EDGE_CURVE('',#714,#715,#784,.F.);
#576=EDGE_CURVE('',#715,#716,#33,.T.);
#577=EDGE_CURVE('',#716,#717,#785,.T.);
#578=EDGE_CURVE('',#717,#682,#34,.F.);
#579=EDGE_CURVE('',#693,#713,#35,.F.);
#580=EDGE_CURVE('',#718,#719,#786,.T.);
#581=EDGE_CURVE('',#719,#712,#787,.T.);
#582=EDGE_CURVE('',#713,#720,#788,.T.);
#583=EDGE_CURVE('',#720,#718,#789,.F.);
#584=EDGE_CURVE('',#721,#722,#790,.T.);
#585=EDGE_CURVE('',#722,#723,#791,.T.);
#586=EDGE_CURVE('',#723,#717,#792,.T.);
#587=EDGE_CURVE('',#716,#721,#793,.F.);
#588=EDGE_CURVE('',#672,#699,#82,.F.);
#589=EDGE_CURVE('',#698,#673,#83,.T.);
#590=EDGE_CURVE('',#692,#720,#36,.F.);
#591=EDGE_CURVE('',#723,#683,#37,.F.);
#592=EDGE_CURVE('',#714,#681,#28,.T.);
#593=EDGE_CURVE('',#680,#715,#29,.T.);
#594=EDGE_CURVE('',#674,#631,#84,.F.);
#595=EDGE_CURVE('',#675,#630,#85,.T.);
#596=EDGE_CURVE('',#676,#634,#86,.T.);
#597=EDGE_CURVE('',#677,#636,#87,.T.);
#598=EDGE_CURVE('',#678,#638,#88,.T.);
#599=EDGE_CURVE('',#679,#640,#89,.T.);
#600=EDGE_CURVE('',#670,#629,#90,.T.);
#601=EDGE_CURVE('',#628,#671,#91,.T.);
#602=EDGE_CURVE('',#668,#648,#92,.T.);
#603=EDGE_CURVE('',#646,#667,#93,.T.);
#604=EDGE_CURVE('',#642,#666,#94,.T.);
#605=EDGE_CURVE('',#669,#650,#95,.T.);
#606=EDGE_CURVE('',#644,#665,#96,.T.);
#607=EDGE_CURVE('',#662,#652,#97,.T.);
#608=EDGE_CURVE('',#656,#664,#98,.T.);
#609=EDGE_CURVE('',#663,#654,#99,.T.);
#610=EDGE_CURVE('',#721,#631,#100,.T.);
#611=EDGE_CURVE('',#721,#674,#101,.T.);
#612=EDGE_CURVE('',#722,#673,#102,.T.);
#613=EDGE_CURVE('',#722,#698,#103,.T.);
#614=EDGE_CURVE('',#723,#707,#104,.T.);
#615=EDGE_CURVE('',#683,#706,#105,.T.);
#616=EDGE_CURVE('',#684,#705,#106,.T.);
#617=EDGE_CURVE('',#686,#704,#107,.T.);
#618=EDGE_CURVE('',#688,#703,#108,.T.);
#619=EDGE_CURVE('',#690,#702,#109,.T.);
#620=EDGE_CURVE('',#692,#701,#110,.T.);
#621=EDGE_CURVE('',#720,#700,#111,.T.);
#622=EDGE_CURVE('',#718,#699,#112,.T.);
#623=EDGE_CURVE('',#628,#719,#113,.T.);
#624=EDGE_CURVE('',#718,#672,#114,.T.);
#625=EDGE_CURVE('',#671,#719,#115,.T.);
#626=VERTEX_POINT('',#1668);
#627=VERTEX_POINT('',#1669);
#628=VERTEX_POINT('',#1671);
#629=VERTEX_POINT('',#1673);
#630=VERTEX_POINT('',#1677);
#631=VERTEX_POINT('',#1678);
#632=VERTEX_POINT('',#1680);
#633=VERTEX_POINT('',#1682);
#634=VERTEX_POINT('',#1686);
#635=VERTEX_POINT('',#1687);
#636=VERTEX_POINT('',#1692);
#637=VERTEX_POINT('',#1693);
#638=VERTEX_POINT('',#1698);
#639=VERTEX_POINT('',#1699);
#640=VERTEX_POINT('',#1704);
#641=VERTEX_POINT('',#1705);
#642=VERTEX_POINT('',#1710);
#643=VERTEX_POINT('',#1711);
#644=VERTEX_POINT('',#1713);
#645=VERTEX_POINT('',#1715);
#646=VERTEX_POINT('',#1719);
#647=VERTEX_POINT('',#1720);
#648=VERTEX_POINT('',#1725);
#649=VERTEX_POINT('',#1726);
#650=VERTEX_POINT('',#1731);
#651=VERTEX_POINT('',#1732);
#652=VERTEX_POINT('',#1737);
#653=VERTEX_POINT('',#1738);
#654=VERTEX_POINT('',#1743);
#655=VERTEX_POINT('',#1744);
#656=VERTEX_POINT('',#1749);
#657=VERTEX_POINT('',#1750);
#658=VERTEX_POINT('',#1755);
#659=VERTEX_POINT('',#1757);
#660=VERTEX_POINT('',#1766);
#661=VERTEX_POINT('',#1768);
#662=VERTEX_POINT('',#1771);
#663=VERTEX_POINT('',#1772);
#664=VERTEX_POINT('',#1774);
#665=VERTEX_POINT('',#1776);
#666=VERTEX_POINT('',#1778);
#667=VERTEX_POINT('',#1780);
#668=VERTEX_POINT('',#1782);
#669=VERTEX_POINT('',#1784);
#670=VERTEX_POINT('',#1787);
#671=VERTEX_POINT('',#1788);
#672=VERTEX_POINT('',#1790);
#673=VERTEX_POINT('',#1792);
#674=VERTEX_POINT('',#1794);
#675=VERTEX_POINT('',#1796);
#676=VERTEX_POINT('',#1798);
#677=VERTEX_POINT('',#1800);
#678=VERTEX_POINT('',#1802);
#679=VERTEX_POINT('',#1804);
#680=VERTEX_POINT('',#1808);
#681=VERTEX_POINT('',#1809);
#682=VERTEX_POINT('',#1814);
#683=VERTEX_POINT('',#1815);
#684=VERTEX_POINT('',#1817);
#685=VERTEX_POINT('',#1819);
#686=VERTEX_POINT('',#1823);
#687=VERTEX_POINT('',#1825);
#688=VERTEX_POINT('',#1829);
#689=VERTEX_POINT('',#1831);
#690=VERTEX_POINT('',#1835);
#691=VERTEX_POINT('',#1837);
#692=VERTEX_POINT('',#1841);
#693=VERTEX_POINT('',#1843);
#694=VERTEX_POINT('',#1847);
#695=VERTEX_POINT('',#1849);
#696=VERTEX_POINT('',#1851);
#697=VERTEX_POINT('',#1853);
#698=VERTEX_POINT('',#1855);
#699=VERTEX_POINT('',#1856);
#700=VERTEX_POINT('',#1858);
#701=VERTEX_POINT('',#1860);
#702=VERTEX_POINT('',#1862);
#703=VERTEX_POINT('',#1864);
#704=VERTEX_POINT('',#1866);
#705=VERTEX_POINT('',#1868);
#706=VERTEX_POINT('',#1870);
#707=VERTEX_POINT('',#1872);
#708=VERTEX_POINT('',#1876);
#709=VERTEX_POINT('',#1878);
#710=VERTEX_POINT('',#1880);
#711=VERTEX_POINT('',#1882);
#712=VERTEX_POINT('',#1884);
#713=VERTEX_POINT('',#1885);
#714=VERTEX_POINT('',#1887);
#715=VERTEX_POINT('',#1889);
#716=VERTEX_POINT('',#1891);
#717=VERTEX_POINT('',#1893);
#718=VERTEX_POINT('',#1902);
#719=VERTEX_POINT('',#1903);
#720=VERTEX_POINT('',#1906);
#721=VERTEX_POINT('',#1910);
#722=VERTEX_POINT('',#1911);
#723=VERTEX_POINT('',#1913);
#724=LINE('',#1667,#794);
#725=LINE('',#1670,#795);
#726=LINE('',#1672,#796);
#727=LINE('',#1674,#797);
#728=LINE('',#1676,#798);
#729=LINE('',#1679,#799);
#730=LINE('',#1681,#800);
#731=LINE('',#1683,#801);
#732=LINE('',#1685,#802);
#733=LINE('',#1691,#803);
#734=LINE('',#1697,#804);
#735=LINE('',#1700,#805);
#736=LINE('',#1701,#806);
#737=LINE('',#1703,#807);
#738=LINE('',#1709,#808);
#739=LINE('',#1714,#809);
#740=LINE('',#1718,#810);
#741=LINE('',#1721,#811);
#742=LINE('',#1722,#812);
#743=LINE('',#1724,#813);
#744=LINE('',#1730,#814);
#745=LINE('',#1733,#815);
#746=LINE('',#1734,#816);
#747=LINE('',#1736,#817);
#748=LINE('',#1742,#818);
#749=LINE('',#1745,#819);
#750=LINE('',#1746,#820);
#751=LINE('',#1748,#821);
#752=LINE('',#1762,#822);
#753=LINE('',#1763,#823);
#754=LINE('',#1770,#824);
#755=LINE('',#1775,#825);
#756=LINE('',#1779,#826);
#757=LINE('',#1783,#827);
#758=LINE('',#1786,#828);
#759=LINE('',#1789,#829);
#760=LINE('',#1791,#830);
#761=LINE('',#1793,#831);
#762=LINE('',#1795,#832);
#763=LINE('',#1801,#833);
#764=LINE('',#1807,#834);
#765=LINE('',#1813,#835);
#766=LINE('',#1816,#836);
#767=LINE('',#1818,#837);
#768=LINE('',#1820,#838);
#769=LINE('',#1824,#839);
#770=LINE('',#1828,#840);
#771=LINE('',#1830,#841);
#772=LINE('',#1832,#842);
#773=LINE('',#1836,#843);
#774=LINE('',#1840,#844);
#775=LINE('',#1842,#845);
#776=LINE('',#1844,#846);
#777=LINE('',#1854,#847);
#778=LINE('',#1857,#848);
#779=LINE('',#1861,#849);
#780=LINE('',#1865,#850);
#781=LINE('',#1869,#851);
#782=LINE('',#1873,#852);
#783=LINE('',#1883,#853);
#784=LINE('',#1888,#854);
#785=LINE('',#1892,#855);
#786=LINE('',#1901,#856);
#787=LINE('',#1904,#857);
#788=LINE('',#1905,#858);
#789=LINE('',#1907,#859);
#790=LINE('',#1909,#860);
#791=LINE('',#1912,#861);
#792=LINE('',#1914,#862);
#793=LINE('',#1915,#863);
#794=VECTOR('',#1293,1.);
#795=VECTOR('',#1294,1.);
#796=VECTOR('',#1295,1.);
#797=VECTOR('',#1296,1.);
#798=VECTOR('',#1299,1.);
#799=VECTOR('',#1300,1.);
#800=VECTOR('',#1301,1.);
#801=VECTOR('',#1302,1.);
#802=VECTOR('',#1305,1.);
#803=VECTOR('',#1312,1.);
#804=VECTOR('',#1319,1.);
#805=VECTOR('',#1320,1.);
#806=VECTOR('',#1321,1.);
#807=VECTOR('',#1324,1.);
#808=VECTOR('',#1331,1.);
#809=VECTOR('',#1334,1.);
#810=VECTOR('',#1339,1.);
#811=VECTOR('',#1340,1.);
#812=VECTOR('',#1341,1.);
#813=VECTOR('',#1344,1.);
#814=VECTOR('',#1351,1.);
#815=VECTOR('',#1352,1.);
#816=VECTOR('',#1353,1.);
#817=VECTOR('',#1356,1.);
#818=VECTOR('',#1363,1.);
#819=VECTOR('',#1364,1.);
#820=VECTOR('',#1365,1.);
#821=VECTOR('',#1368,1.);
#822=VECTOR('',#1387,1.);
#823=VECTOR('',#1388,1.);
#824=VECTOR('',#1397,1.);
#825=VECTOR('',#1400,1.);
#826=VECTOR('',#1403,1.);
#827=VECTOR('',#1406,1.);
#828=VECTOR('',#1409,1.);
#829=VECTOR('',#1410,1.);
#830=VECTOR('',#1411,1.);
#831=VECTOR('',#1412,1.);
#832=VECTOR('',#1413,1.);
#833=VECTOR('',#1418,1.);
#834=VECTOR('',#1425,1.);
#835=VECTOR('',#1432,1.);
#836=VECTOR('',#1433,1.);
#837=VECTOR('',#1434,1.);
#838=VECTOR('',#1435,1.);
#839=VECTOR('',#1440,1.);
#840=VECTOR('',#1445,1.);
#841=VECTOR('',#1446,1.);
#842=VECTOR('',#1447,1.);
#843=VECTOR('',#1452,1.);
#844=VECTOR('',#1457,1.);
#845=VECTOR('',#1458,1.);
#846=VECTOR('',#1459,1.);
#847=VECTOR('',#1470,1.);
#848=VECTOR('',#1471,1.);
#849=VECTOR('',#1474,1.);
#850=VECTOR('',#1477,1.);
#851=VECTOR('',#1480,1.);
#852=VECTOR('',#1483,1.);
#853=VECTOR('',#1494,1.);
#854=VECTOR('',#1497,1.);
#855=VECTOR('',#1500,1.);
#856=VECTOR('',#1515,1.);
#857=VECTOR('',#1516,1.);
#858=VECTOR('',#1517,1.);
#859=VECTOR('',#1518,1.);
#860=VECTOR('',#1521,1.);
#861=VECTOR('',#1522,1.);
#862=VECTOR('',#1523,1.);
#863=VECTOR('',#1524,1.);
#864=EDGE_LOOP('',(#152,#153,#154,#155));
#865=EDGE_LOOP('',(#156,#157,#158,#159));
#866=EDGE_LOOP('',(#160,#161,#162,#163));
#867=EDGE_LOOP('',(#164,#165,#166,#167));
#868=EDGE_LOOP('',(#168,#169,#170,#171));
#869=EDGE_LOOP('',(#172,#173,#174,#175));
#870=EDGE_LOOP('',(#176,#177,#178,#179));
#871=EDGE_LOOP('',(#180,#181,#182,#183));
#872=EDGE_LOOP('',(#184,#185,#186,#187));
#873=EDGE_LOOP('',(#188,#189,#190,#191));
#874=EDGE_LOOP('',(#192,#193,#194,#195));
#875=EDGE_LOOP('',(#196,#197,#198,#199));
#876=EDGE_LOOP('',(#200,#201,#202,#203));
#877=EDGE_LOOP('',(#204));
#878=EDGE_LOOP('',(#205));
#879=EDGE_LOOP('',(#206,#207,#208,#209));
#880=EDGE_LOOP('',(#210,#211,#212,#213));
#881=EDGE_LOOP('',(#214));
#882=EDGE_LOOP('',(#215));
#883=EDGE_LOOP('',(#216,#217,#218,#219,#220,#221,#222,#223));
#884=EDGE_LOOP('',(#224,#225,#226,#227,#228,#229,#230,#231,#232,#233));
#885=EDGE_LOOP('',(#234));
#886=EDGE_LOOP('',(#235));
#887=EDGE_LOOP('',(#236,#237,#238,#239,#240,#241,#242,#243));
#888=EDGE_LOOP('',(#244,#245,#246,#247,#248,#249,#250,#251,#252,#253));
#889=EDGE_LOOP('',(#254));
#890=EDGE_LOOP('',(#255));
#891=EDGE_LOOP('',(#256,#257,#258,#259));
#892=EDGE_LOOP('',(#260,#261,#262,#263));
#893=EDGE_LOOP('',(#264,#265,#266,#267));
#894=EDGE_LOOP('',(#268,#269,#270,#271));
#895=EDGE_LOOP('',(#272,#273,#274,#275));
#896=EDGE_LOOP('',(#276));
#897=EDGE_LOOP('',(#277));
#898=EDGE_LOOP('',(#278));
#899=EDGE_LOOP('',(#279));
#900=EDGE_LOOP('',(#280,#281,#282,#283,#284,#285,#286,#287,#288,#289));
#901=EDGE_LOOP('',(#290));
#902=EDGE_LOOP('',(#291));
#903=EDGE_LOOP('',(#292));
#904=EDGE_LOOP('',(#293));
#905=EDGE_LOOP('',(#294,#295,#296,#297,#298,#299,#300,#301,#302,#303,#304,
#305));
#906=EDGE_LOOP('',(#306));
#907=EDGE_LOOP('',(#307));
#908=EDGE_LOOP('',(#308));
#909=EDGE_LOOP('',(#309));
#910=EDGE_LOOP('',(#310));
#911=EDGE_LOOP('',(#311));
#912=EDGE_LOOP('',(#312));
#913=EDGE_LOOP('',(#313));
#914=EDGE_LOOP('',(#314,#315,#316,#317,#318));
#915=EDGE_LOOP('',(#319,#320,#321,#322,#323));
#916=EDGE_LOOP('',(#324,#325,#326,#327));
#917=EDGE_LOOP('',(#328,#329,#330,#331));
#918=EDGE_LOOP('',(#332,#333,#334,#335));
#919=EDGE_LOOP('',(#336,#337,#338,#339));
#920=EDGE_LOOP('',(#340,#341,#342,#343));
#921=EDGE_LOOP('',(#344,#345,#346,#347));
#922=EDGE_LOOP('',(#348,#349,#350,#351));
#923=EDGE_LOOP('',(#352,#353,#354,#355));
#924=EDGE_LOOP('',(#356,#357,#358,#359));
#925=EDGE_LOOP('',(#360,#361,#362,#363));
#926=EDGE_LOOP('',(#364,#365,#366,#367));
#927=EDGE_LOOP('',(#368,#369,#370,#371));
#928=EDGE_LOOP('',(#372,#373,#374,#375));
#929=EDGE_LOOP('',(#376,#377,#378,#379));
#930=EDGE_LOOP('',(#380,#381,#382,#383));
#931=EDGE_LOOP('',(#384,#385,#386,#387));
#932=EDGE_LOOP('',(#388,#389,#390,#391));
#933=EDGE_LOOP('',(#392,#393,#394,#395));
#934=EDGE_LOOP('',(#396,#397,#398,#399));
#935=EDGE_LOOP('',(#400,#401,#402,#403,#404,#405));
#936=EDGE_LOOP('',(#406,#407,#408));
#937=EDGE_LOOP('',(#409,#410,#411,#412));
#938=EDGE_LOOP('',(#413,#414,#415));
#939=EDGE_LOOP('',(#416,#417,#418,#419));
#940=EDGE_LOOP('',(#420,#421,#422,#423));
#941=EDGE_LOOP('',(#424,#425,#426,#427));
#942=EDGE_LOOP('',(#428,#429,#430,#431));
#943=EDGE_LOOP('',(#432,#433,#434,#435));
#944=EDGE_LOOP('',(#436,#437,#438,#439));
#945=EDGE_LOOP('',(#440,#441,#442,#443));
#946=EDGE_LOOP('',(#444,#445,#446,#447));
#947=EDGE_LOOP('',(#448,#449,#450,#451));
#948=EDGE_LOOP('',(#452,#453,#454,#455,#456,#457));
#949=EDGE_LOOP('',(#458,#459,#460));
#950=EDGE_LOOP('',(#461,#462,#463));
#951=EDGE_LOOP('',(#464,#465,#466,#467));
#952=FACE_BOUND('',#864,.T.);
#953=FACE_BOUND('',#865,.T.);
#954=FACE_BOUND('',#866,.T.);
#955=FACE_BOUND('',#867,.T.);
#956=FACE_BOUND('',#868,.T.);
#957=FACE_BOUND('',#869,.T.);
#958=FACE_BOUND('',#870,.T.);
#959=FACE_BOUND('',#871,.T.);
#960=FACE_BOUND('',#872,.T.);
#961=FACE_BOUND('',#873,.T.);
#962=FACE_BOUND('',#874,.T.);
#963=FACE_BOUND('',#875,.T.);
#964=FACE_BOUND('',#876,.T.);
#965=FACE_BOUND('',#877,.T.);
#966=FACE_BOUND('',#878,.T.);
#967=FACE_BOUND('',#879,.T.);
#968=FACE_BOUND('',#880,.T.);
#969=FACE_BOUND('',#881,.T.);
#970=FACE_BOUND('',#882,.T.);
#971=FACE_BOUND('',#883,.T.);
#972=FACE_BOUND('',#884,.T.);
#973=FACE_BOUND('',#885,.T.);
#974=FACE_BOUND('',#886,.T.);
#975=FACE_BOUND('',#887,.T.);
#976=FACE_BOUND('',#888,.T.);
#977=FACE_BOUND('',#889,.T.);
#978=FACE_BOUND('',#890,.T.);
#979=FACE_BOUND('',#891,.T.);
#980=FACE_BOUND('',#892,.T.);
#981=FACE_BOUND('',#893,.T.);
#982=FACE_BOUND('',#894,.T.);
#983=FACE_BOUND('',#895,.T.);
#984=FACE_BOUND('',#896,.T.);
#985=FACE_BOUND('',#897,.T.);
#986=FACE_BOUND('',#898,.T.);
#987=FACE_BOUND('',#899,.T.);
#988=FACE_BOUND('',#900,.T.);
#989=FACE_BOUND('',#901,.T.);
#990=FACE_BOUND('',#902,.T.);
#991=FACE_BOUND('',#903,.T.);
#992=FACE_BOUND('',#904,.T.);
#993=FACE_BOUND('',#905,.T.);
#994=FACE_BOUND('',#906,.T.);
#995=FACE_BOUND('',#907,.T.);
#996=FACE_BOUND('',#908,.T.);
#997=FACE_BOUND('',#909,.T.);
#998=FACE_BOUND('',#910,.T.);
#999=FACE_BOUND('',#911,.T.);
#1000=FACE_BOUND('',#912,.T.);
#1001=FACE_BOUND('',#913,.T.);
#1002=FACE_BOUND('',#914,.T.);
#1003=FACE_BOUND('',#915,.T.);
#1004=FACE_BOUND('',#916,.T.);
#1005=FACE_BOUND('',#917,.T.);
#1006=FACE_BOUND('',#918,.T.);
#1007=FACE_BOUND('',#919,.T.);
#1008=FACE_BOUND('',#920,.T.);
#1009=FACE_BOUND('',#921,.T.);
#1010=FACE_BOUND('',#922,.T.);
#1011=FACE_BOUND('',#923,.T.);
#1012=FACE_BOUND('',#924,.T.);
#1013=FACE_BOUND('',#925,.T.);
#1014=FACE_BOUND('',#926,.T.);
#1015=FACE_BOUND('',#927,.T.);
#1016=FACE_BOUND('',#928,.T.);
#1017=FACE_BOUND('',#929,.T.);
#1018=FACE_BOUND('',#930,.T.);
#1019=FACE_BOUND('',#931,.T.);
#1020=FACE_BOUND('',#932,.T.);
#1021=FACE_BOUND('',#933,.T.);
#1022=FACE_BOUND('',#934,.T.);
#1023=FACE_BOUND('',#935,.T.);
#1024=FACE_BOUND('',#936,.T.);
#1025=FACE_BOUND('',#937,.T.);
#1026=FACE_BOUND('',#938,.T.);
#1027=FACE_BOUND('',#939,.T.);
#1028=FACE_BOUND('',#940,.T.);
#1029=FACE_BOUND('',#941,.T.);
#1030=FACE_BOUND('',#942,.T.);
#1031=FACE_BOUND('',#943,.T.);
#1032=FACE_BOUND('',#944,.T.);
#1033=FACE_BOUND('',#945,.T.);
#1034=FACE_BOUND('',#946,.T.);
#1035=FACE_BOUND('',#947,.T.);
#1036=FACE_BOUND('',#948,.T.);
#1037=FACE_BOUND('',#949,.T.);
#1038=FACE_BOUND('',#950,.T.);
#1039=FACE_BOUND('',#951,.T.);
#1040=PLANE('',#1137);
#1041=PLANE('',#1138);
#1042=PLANE('',#1145);
#1043=PLANE('',#1152);
#1044=PLANE('',#1156);
#1045=PLANE('',#1160);
#1046=PLANE('',#1170);
#1047=PLANE('',#1174);
#1048=PLANE('',#1183);
#1049=PLANE('',#1186);
#1050=PLANE('',#1190);
#1051=PLANE('',#1194);
#1052=PLANE('',#1195);
#1053=PLANE('',#1204);
#1054=PLANE('',#1217);
#1055=PLANE('',#1218);
#1056=ADVANCED_FACE('',(#952),#1040,.T.);
#1057=ADVANCED_FACE('',(#953),#1041,.F.);
#1058=ADVANCED_FACE('',(#954),#116,.F.);
#1059=ADVANCED_FACE('',(#955),#117,.T.);
#1060=ADVANCED_FACE('',(#956),#1042,.T.);
#1061=ADVANCED_FACE('',(#957),#118,.T.);
#1062=ADVANCED_FACE('',(#958),#119,.F.);
#1063=ADVANCED_FACE('',(#959),#1043,.F.);
#1064=ADVANCED_FACE('',(#960),#120,.F.);
#1065=ADVANCED_FACE('',(#961),#1044,.T.);
#1066=ADVANCED_FACE('',(#962),#121,.F.);
#1067=ADVANCED_FACE('',(#963),#1045,.T.);
#1068=ADVANCED_FACE('',(#964),#122,.F.);
#1069=ADVANCED_FACE('',(#965,#966),#123,.F.);
#1070=ADVANCED_FACE('',(#967),#124,.F.);
#1071=ADVANCED_FACE('',(#968),#1046,.F.);
#1072=ADVANCED_FACE('',(#969,#970),#125,.F.);
#1073=ADVANCED_FACE('',(#971,#972,#973,#974),#1047,.T.);
#1074=ADVANCED_FACE('',(#975,#976,#977,#978),#1048,.F.);
#1075=ADVANCED_FACE('',(#979),#1049,.F.);
#1076=ADVANCED_FACE('',(#980),#126,.T.);
#1077=ADVANCED_FACE('',(#981),#1050,.F.);
#1078=ADVANCED_FACE('',(#982),#127,.T.);
#1079=ADVANCED_FACE('',(#983),#1051,.T.);
#1080=ADVANCED_FACE('',(#984,#985,#986,#987,#988),#1052,.T.);
#1081=ADVANCED_FACE('',(#989,#990,#991,#992,#993),#1053,.T.);
#1082=ADVANCED_FACE('',(#994,#995),#128,.F.);
#1083=ADVANCED_FACE('',(#996,#997),#129,.F.);
#1084=ADVANCED_FACE('',(#998,#999),#130,.F.);
#1085=ADVANCED_FACE('',(#1000,#1001),#131,.F.);
#1086=ADVANCED_FACE('',(#1002),#1054,.T.);
#1087=ADVANCED_FACE('',(#1003),#1055,.F.);
#1088=ADVANCED_FACE('',(#1004),#132,.T.);
#1089=ADVANCED_FACE('',(#1005),#133,.F.);
#1090=ADVANCED_FACE('',(#1006),#134,.F.);
#1091=ADVANCED_FACE('',(#1007),#135,.F.);
#1092=ADVANCED_FACE('',(#1008),#136,.T.);
#1093=ADVANCED_FACE('',(#1009),#18,.T.);
#1094=ADVANCED_FACE('',(#1010),#19,.T.);
#1095=ADVANCED_FACE('',(#1011),#137,.T.);
#1096=ADVANCED_FACE('',(#1012),#20,.T.);
#1097=ADVANCED_FACE('',(#1013),#21,.T.);
#1098=ADVANCED_FACE('',(#1014),#138,.T.);
#1099=ADVANCED_FACE('',(#1015),#22,.T.);
#1100=ADVANCED_FACE('',(#1016),#139,.T.);
#1101=ADVANCED_FACE('',(#1017),#140,.T.);
#1102=ADVANCED_FACE('',(#1018),#23,.T.);
#1103=ADVANCED_FACE('',(#1019),#24,.T.);
#1104=ADVANCED_FACE('',(#1020),#141,.T.);
#1105=ADVANCED_FACE('',(#1021),#142,.T.);
#1106=ADVANCED_FACE('',(#1022),#25,.T.);
#1107=ADVANCED_FACE('',(#1023),#143,.T.);
#1108=ADVANCED_FACE('',(#1024),#14,.T.);
#1109=ADVANCED_FACE('',(#1025),#144,.T.);
#1110=ADVANCED_FACE('',(#1026),#15,.T.);
#1111=ADVANCED_FACE('',(#1027),#145,.T.);
#1112=ADVANCED_FACE('',(#1028),#12,.T.);
#1113=ADVANCED_FACE('',(#1029),#146,.T.);
#1114=ADVANCED_FACE('',(#1030),#26,.T.);
#1115=ADVANCED_FACE('',(#1031),#147,.T.);
#1116=ADVANCED_FACE('',(#1032),#27,.T.);
#1117=ADVANCED_FACE('',(#1033),#148,.T.);
#1118=ADVANCED_FACE('',(#1034),#13,.T.);
#1119=ADVANCED_FACE('',(#1035),#149,.T.);
#1120=ADVANCED_FACE('',(#1036),#150,.T.);
#1121=ADVANCED_FACE('',(#1037),#16,.T.);
#1122=ADVANCED_FACE('',(#1038),#17,.T.);
#1123=ADVANCED_FACE('',(#1039),#151,.T.);
#1124=CLOSED_SHELL('',(#1056,#1057,#1058,#1059,#1060,#1061,#1062,#1063,
#1064,#1065,#1066,#1067,#1068,#1069,#1070,#1071,#1072,#1073,#1074,#1075,
#1076,#1077,#1078,#1079,#1080,#1081,#1082,#1083,#1084,#1085,#1086,#1087,
#1088,#1089,#1090,#1091,#1092,#1093,#1094,#1095,#1096,#1097,#1098,#1099,
#1100,#1101,#1102,#1103,#1104,#1105,#1106,#1107,#1108,#1109,#1110,#1111,
#1112,#1113,#1114,#1115,#1116,#1117,#1118,#1119,#1120,#1121,#1122,#1123));
#1125=STYLED_ITEM('',(#1126),#1133);
#1126=PRESENTATION_STYLE_ASSIGNMENT((#1127));
#1127=SURFACE_STYLE_USAGE(.BOTH.,#1128);
#1128=SURFACE_SIDE_STYLE('',(#1129));
#1129=SURFACE_STYLE_FILL_AREA(#1130);
#1130=FILL_AREA_STYLE('',(#1131));
#1131=FILL_AREA_STYLE_COLOUR('',#1132);
#1132=COLOUR_RGB('',0.768627450980392,0.886274509803922,0.952941176470588);
#1133=MANIFOLD_SOLID_BREP('OMX-AI_D405_Camera_Frame_Lightweight',#1124);
#1134=SHAPE_DEFINITION_REPRESENTATION(#2024,#1135);
#1135=SHAPE_REPRESENTATION('OMX-AI_D405_Camera_Frame_Lightweight',(#1136),
#2019);
#1136=AXIS2_PLACEMENT_3D('',#1665,#1289,#1290);
#1137=AXIS2_PLACEMENT_3D('',#1666,#1291,#1292);
#1138=AXIS2_PLACEMENT_3D('',#1675,#1297,#1298);
#1139=AXIS2_PLACEMENT_3D('',#1684,#1303,#1304);
#1140=AXIS2_PLACEMENT_3D('',#1688,#1306,#1307);
#1141=AXIS2_PLACEMENT_3D('',#1689,#1308,#1309);
#1142=AXIS2_PLACEMENT_3D('',#1690,#1310,#1311);
#1143=AXIS2_PLACEMENT_3D('',#1694,#1313,#1314);
#1144=AXIS2_PLACEMENT_3D('',#1695,#1315,#1316);
#1145=AXIS2_PLACEMENT_3D('',#1696,#1317,#1318);
#1146=AXIS2_PLACEMENT_3D('',#1702,#1322,#1323);
#1147=AXIS2_PLACEMENT_3D('',#1706,#1325,#1326);
#1148=AXIS2_PLACEMENT_3D('',#1707,#1327,#1328);
#1149=AXIS2_PLACEMENT_3D('',#1708,#1329,#1330);
#1150=AXIS2_PLACEMENT_3D('',#1712,#1332,#1333);
#1151=AXIS2_PLACEMENT_3D('',#1716,#1335,#1336);
#1152=AXIS2_PLACEMENT_3D('',#1717,#1337,#1338);
#1153=AXIS2_PLACEMENT_3D('',#1723,#1342,#1343);
#1154=AXIS2_PLACEMENT_3D('',#1727,#1345,#1346);
#1155=AXIS2_PLACEMENT_3D('',#1728,#1347,#1348);
#1156=AXIS2_PLACEMENT_3D('',#1729,#1349,#1350);
#1157=AXIS2_PLACEMENT_3D('',#1735,#1354,#1355);
#1158=AXIS2_PLACEMENT_3D('',#1739,#1357,#1358);
#1159=AXIS2_PLACEMENT_3D('',#1740,#1359,#1360);
#1160=AXIS2_PLACEMENT_3D('',#1741,#1361,#1362);
#1161=AXIS2_PLACEMENT_3D('',#1747,#1366,#1367);
#1162=AXIS2_PLACEMENT_3D('',#1751,#1369,#1370);
#1163=AXIS2_PLACEMENT_3D('',#1752,#1371,#1372);
#1164=AXIS2_PLACEMENT_3D('',#1753,#1373,#1374);
#1165=AXIS2_PLACEMENT_3D('',#1754,#1375,#1376);
#1166=AXIS2_PLACEMENT_3D('',#1756,#1377,#1378);
#1167=AXIS2_PLACEMENT_3D('',#1758,#1379,#1380);
#1168=AXIS2_PLACEMENT_3D('',#1759,#1381,#1382);
#1169=AXIS2_PLACEMENT_3D('',#1760,#1383,#1384);
#1170=AXIS2_PLACEMENT_3D('',#1761,#1385,#1386);
#1171=AXIS2_PLACEMENT_3D('',#1764,#1389,#1390);
#1172=AXIS2_PLACEMENT_3D('',#1765,#1391,#1392);
#1173=AXIS2_PLACEMENT_3D('',#1767,#1393,#1394);
#1174=AXIS2_PLACEMENT_3D('',#1769,#1395,#1396);
#1175=AXIS2_PLACEMENT_3D('',#1773,#1398,#1399);
#1176=AXIS2_PLACEMENT_3D('',#1777,#1401,#1402);
#1177=AXIS2_PLACEMENT_3D('',#1781,#1404,#1405);
#1178=AXIS2_PLACEMENT_3D('',#1785,#1407,#1408);
#1179=AXIS2_PLACEMENT_3D('',#1797,#1414,#1415);
#1180=AXIS2_PLACEMENT_3D('',#1799,#1416,#1417);
#1181=AXIS2_PLACEMENT_3D('',#1803,#1419,#1420);
#1182=AXIS2_PLACEMENT_3D('',#1805,#1421,#1422);
#1183=AXIS2_PLACEMENT_3D('',#1806,#1423,#1424);
#1184=AXIS2_PLACEMENT_3D('',#1810,#1426,#1427);
#1185=AXIS2_PLACEMENT_3D('',#1811,#1428,#1429);
#1186=AXIS2_PLACEMENT_3D('',#1812,#1430,#1431);
#1187=AXIS2_PLACEMENT_3D('',#1821,#1436,#1437);
#1188=AXIS2_PLACEMENT_3D('',#1822,#1438,#1439);
#1189=AXIS2_PLACEMENT_3D('',#1826,#1441,#1442);
#1190=AXIS2_PLACEMENT_3D('',#1827,#1443,#1444);
#1191=AXIS2_PLACEMENT_3D('',#1833,#1448,#1449);
#1192=AXIS2_PLACEMENT_3D('',#1834,#1450,#1451);
#1193=AXIS2_PLACEMENT_3D('',#1838,#1453,#1454);
#1194=AXIS2_PLACEMENT_3D('',#1839,#1455,#1456);
#1195=AXIS2_PLACEMENT_3D('',#1845,#1460,#1461);
#1196=AXIS2_PLACEMENT_3D('',#1846,#1462,#1463);
#1197=AXIS2_PLACEMENT_3D('',#1848,#1464,#1465);
#1198=AXIS2_PLACEMENT_3D('',#1850,#1466,#1467);
#1199=AXIS2_PLACEMENT_3D('',#1852,#1468,#1469);
#1200=AXIS2_PLACEMENT_3D('',#1859,#1472,#1473);
#1201=AXIS2_PLACEMENT_3D('',#1863,#1475,#1476);
#1202=AXIS2_PLACEMENT_3D('',#1867,#1478,#1479);
#1203=AXIS2_PLACEMENT_3D('',#1871,#1481,#1482);
#1204=AXIS2_PLACEMENT_3D('',#1874,#1484,#1485);
#1205=AXIS2_PLACEMENT_3D('',#1875,#1486,#1487);
#1206=AXIS2_PLACEMENT_3D('',#1877,#1488,#1489);
#1207=AXIS2_PLACEMENT_3D('',#1879,#1490,#1491);
#1208=AXIS2_PLACEMENT_3D('',#1881,#1492,#1493);
#1209=AXIS2_PLACEMENT_3D('',#1886,#1495,#1496);
#1210=AXIS2_PLACEMENT_3D('',#1890,#1498,#1499);
#1211=AXIS2_PLACEMENT_3D('',#1894,#1501,#1502);
#1212=AXIS2_PLACEMENT_3D('',#1895,#1503,#1504);
#1213=AXIS2_PLACEMENT_3D('',#1896,#1505,#1506);
#1214=AXIS2_PLACEMENT_3D('',#1897,#1507,#1508);
#1215=AXIS2_PLACEMENT_3D('',#1898,#1509,#1510);
#1216=AXIS2_PLACEMENT_3D('',#1899,#1511,#1512);
#1217=AXIS2_PLACEMENT_3D('',#1900,#1513,#1514);
#1218=AXIS2_PLACEMENT_3D('',#1908,#1519,#1520);
#1219=AXIS2_PLACEMENT_3D('',#1916,#1525,#1526);
#1220=AXIS2_PLACEMENT_3D('',#1917,#1527,#1528);
#1221=AXIS2_PLACEMENT_3D('',#1918,#1529,#1530);
#1222=AXIS2_PLACEMENT_3D('',#1919,#1531,#1532);
#1223=AXIS2_PLACEMENT_3D('',#1920,#1533,#1534);
#1224=AXIS2_PLACEMENT_3D('',#1921,#1535,#1536);
#1225=AXIS2_PLACEMENT_3D('',#1922,#1537,#1538);
#1226=AXIS2_PLACEMENT_3D('',#1923,#1539,#1540);
#1227=AXIS2_PLACEMENT_3D('',#1932,#1541,#1542);
#1228=AXIS2_PLACEMENT_3D('',#1933,#1543,#1544);
#1229=AXIS2_PLACEMENT_3D('',#1934,#1545,#1546);
#1230=AXIS2_PLACEMENT_3D('',#1935,#1547,#1548);
#1231=AXIS2_PLACEMENT_3D('',#1936,#1549,#1550);
#1232=AXIS2_PLACEMENT_3D('',#1937,#1551,#1552);
#1233=AXIS2_PLACEMENT_3D('',#1938,#1553,#1554);
#1234=AXIS2_PLACEMENT_3D('',#1939,#1555,#1556);
#1235=AXIS2_PLACEMENT_3D('',#1940,#1557,#1558);
#1236=AXIS2_PLACEMENT_3D('',#1941,#1559,#1560);
#1237=AXIS2_PLACEMENT_3D('',#1942,#1561,#1562);
#1238=AXIS2_PLACEMENT_3D('',#1943,#1563,#1564);
#1239=AXIS2_PLACEMENT_3D('',#1944,#1565,#1566);
#1240=AXIS2_PLACEMENT_3D('',#1945,#1567,#1568);
#1241=AXIS2_PLACEMENT_3D('',#1946,#1569,#1570);
#1242=AXIS2_PLACEMENT_3D('',#1947,#1571,#1572);
#1243=AXIS2_PLACEMENT_3D('',#1948,#1573,#1574);
#1244=AXIS2_PLACEMENT_3D('',#1949,#1575,#1576);
#1245=AXIS2_PLACEMENT_3D('',#1950,#1577,#1578);
#1246=AXIS2_PLACEMENT_3D('',#1951,#1579,#1580);
#1247=AXIS2_PLACEMENT_3D('',#1952,#1581,#1582);
#1248=AXIS2_PLACEMENT_3D('',#1953,#1583,#1584);
#1249=AXIS2_PLACEMENT_3D('',#1954,#1585,#1586);
#1250=AXIS2_PLACEMENT_3D('',#1955,#1587,#1588);
#1251=AXIS2_PLACEMENT_3D('',#1956,#1589,#1590);
#1252=AXIS2_PLACEMENT_3D('',#1957,#1591,#1592);
#1253=AXIS2_PLACEMENT_3D('',#1958,#1593,#1594);
#1254=AXIS2_PLACEMENT_3D('',#1959,#1595,#1596);
#1255=AXIS2_PLACEMENT_3D('',#1960,#1597,#1598);
#1256=AXIS2_PLACEMENT_3D('',#1961,#1599,#1600);
#1257=AXIS2_PLACEMENT_3D('',#1962,#1601,#1602);
#1258=AXIS2_PLACEMENT_3D('',#1963,#1603,#1604);
#1259=AXIS2_PLACEMENT_3D('',#1964,#1605,#1606);
#1260=AXIS2_PLACEMENT_3D('',#1965,#1607,#1608);
#1261=AXIS2_PLACEMENT_3D('',#1966,#1609,#1610);
#1262=AXIS2_PLACEMENT_3D('',#1967,#1611,#1612);
#1263=AXIS2_PLACEMENT_3D('',#1968,#1613,#1614);
#1264=AXIS2_PLACEMENT_3D('',#1969,#1615,#1616);
#1265=AXIS2_PLACEMENT_3D('',#1970,#1617,#1618);
#1266=AXIS2_PLACEMENT_3D('',#1971,#1619,#1620);
#1267=AXIS2_PLACEMENT_3D('',#1972,#1621,#1622);
#1268=AXIS2_PLACEMENT_3D('',#1985,#1623,#1624);
#1269=AXIS2_PLACEMENT_3D('',#1986,#1625,#1626);
#1270=AXIS2_PLACEMENT_3D('',#1987,#1627,#1628);
#1271=AXIS2_PLACEMENT_3D('',#1988,#1629,#1630);
#1272=AXIS2_PLACEMENT_3D('',#1989,#1631,#1632);
#1273=AXIS2_PLACEMENT_3D('',#1990,#1633,#1634);
#1274=AXIS2_PLACEMENT_3D('',#1991,#1635,#1636);
#1275=AXIS2_PLACEMENT_3D('',#1992,#1637,#1638);
#1276=AXIS2_PLACEMENT_3D('',#1993,#1639,#1640);
#1277=AXIS2_PLACEMENT_3D('',#1994,#1641,#1642);
#1278=AXIS2_PLACEMENT_3D('',#1995,#1643,#1644);
#1279=AXIS2_PLACEMENT_3D('',#2008,#1645,#1646);
#1280=AXIS2_PLACEMENT_3D('',#2009,#1647,#1648);
#1281=AXIS2_PLACEMENT_3D('',#2010,#1649,#1650);
#1282=AXIS2_PLACEMENT_3D('',#2011,#1651,#1652);
#1283=AXIS2_PLACEMENT_3D('',#2012,#1653,#1654);
#1284=AXIS2_PLACEMENT_3D('',#2013,#1655,#1656);
#1285=AXIS2_PLACEMENT_3D('',#2014,#1657,#1658);
#1286=AXIS2_PLACEMENT_3D('',#2015,#1659,#1660);
#1287=AXIS2_PLACEMENT_3D('',#2016,#1661,#1662);
#1288=AXIS2_PLACEMENT_3D('',#2017,#1663,#1664);
#1289=DIRECTION('',(0.,0.,1.));
#1290=DIRECTION('',(1.,0.,0.));
#1291=DIRECTION('',(1.,0.,0.));
#1292=DIRECTION('',(0.,0.,-1.));
#1293=DIRECTION('',(0.,0.,1.));
#1294=DIRECTION('',(0.,-1.,0.));
#1295=DIRECTION('',(0.,0.,1.));
#1296=DIRECTION('',(0.,-1.,0.));
#1297=DIRECTION('',(1.,0.,0.));
#1298=DIRECTION('',(0.,0.,-1.));
#1299=DIRECTION('',(0.,0.,1.));
#1300=DIRECTION('',(0.,1.,0.));
#1301=DIRECTION('',(0.,0.,1.));
#1302=DIRECTION('',(0.,-1.,0.));
#1303=DIRECTION('',(0.,-1.,0.));
#1304=DIRECTION('',(0.,0.,-1.));
#1305=DIRECTION('',(0.,-1.,0.));
#1306=DIRECTION('',(0.,1.,0.));
#1307=DIRECTION('',(0.,0.,1.));
#1308=DIRECTION('',(0.,1.,0.));
#1309=DIRECTION('',(0.,0.,1.));
#1310=DIRECTION('',(0.,-1.,0.));
#1311=DIRECTION('',(0.,0.,-1.));
#1312=DIRECTION('',(0.,-1.,0.));
#1313=DIRECTION('',(0.,1.,0.));
#1314=DIRECTION('',(0.,0.,1.));
#1315=DIRECTION('',(0.,1.,0.));
#1316=DIRECTION('',(0.,0.,1.));
#1317=DIRECTION('',(0.,0.,1.));
#1318=DIRECTION('',(1.,0.,0.));
#1319=DIRECTION('',(0.,-1.,0.));
#1320=DIRECTION('',(-1.,0.,0.));
#1321=DIRECTION('',(-1.,0.,0.));
#1322=DIRECTION('',(0.,-1.,0.));
#1323=DIRECTION('',(0.,0.,-1.));
#1324=DIRECTION('',(0.,-1.,0.));
#1325=DIRECTION('',(0.,1.,0.));
#1326=DIRECTION('',(0.,0.,1.));
#1327=DIRECTION('',(0.,-1.,0.));
#1328=DIRECTION('',(0.,0.,1.));
#1329=DIRECTION('',(0.,-1.,0.));
#1330=DIRECTION('',(0.,0.,-1.));
#1331=DIRECTION('',(0.,-1.,0.));
#1332=DIRECTION('',(0.,1.,0.));
#1333=DIRECTION('',(0.,0.,1.));
#1334=DIRECTION('',(0.,-1.,0.));
#1335=DIRECTION('',(0.,1.,0.));
#1336=DIRECTION('',(0.,0.,1.));
#1337=DIRECTION('',(-1.,0.,0.));
#1338=DIRECTION('',(0.,0.,1.));
#1339=DIRECTION('',(0.,-1.,0.));
#1340=DIRECTION('',(0.,0.,-1.));
#1341=DIRECTION('',(0.,0.,-1.));
#1342=DIRECTION('',(0.,-1.,0.));
#1343=DIRECTION('',(0.,0.,-1.));
#1344=DIRECTION('',(0.,-1.,0.));
#1345=DIRECTION('',(0.,1.,0.));
#1346=DIRECTION('',(0.,0.,1.));
#1347=DIRECTION('',(0.,1.,0.));
#1348=DIRECTION('',(0.,0.,1.));
#1349=DIRECTION('',(0.,0.,1.));
#1350=DIRECTION('',(1.,0.,0.));
#1351=DIRECTION('',(0.,-1.,0.));
#1352=DIRECTION('',(-1.,0.,0.));
#1353=DIRECTION('',(-1.,0.,0.));
#1354=DIRECTION('',(0.,-1.,0.));
#1355=DIRECTION('',(0.,0.,-1.));
#1356=DIRECTION('',(0.,-1.,0.));
#1357=DIRECTION('',(0.,1.,0.));
#1358=DIRECTION('',(0.,0.,1.));
#1359=DIRECTION('',(0.,1.,0.));
#1360=DIRECTION('',(0.,0.,1.));
#1361=DIRECTION('',(-1.,0.,0.));
#1362=DIRECTION('',(0.,0.,1.));
#1363=DIRECTION('',(0.,-1.,0.));
#1364=DIRECTION('',(0.,0.,-1.));
#1365=DIRECTION('',(0.,0.,-1.));
#1366=DIRECTION('',(0.,-1.,0.));
#1367=DIRECTION('',(0.,0.,-1.));
#1368=DIRECTION('',(0.,-1.,0.));
#1369=DIRECTION('',(0.,1.,0.));
#1370=DIRECTION('',(0.,0.,1.));
#1371=DIRECTION('',(0.,1.,0.));
#1372=DIRECTION('',(0.,0.,1.));
#1373=DIRECTION('',(0.,-1.,0.));
#1374=DIRECTION('',(0.,0.,-1.));
#1375=DIRECTION('',(0.,1.,0.));
#1376=DIRECTION('',(0.,0.,1.));
#1377=DIRECTION('',(0.,1.,0.));
#1378=DIRECTION('',(0.,0.,1.));
#1379=DIRECTION('',(0.,-1.,0.));
#1380=DIRECTION('',(0.,0.,-1.));
#1381=DIRECTION('',(0.,1.,0.));
#1382=DIRECTION('',(0.,0.,1.));
#1383=DIRECTION('',(0.,1.,0.));
#1384=DIRECTION('',(0.,0.,1.));
#1385=DIRECTION('',(0.,0.,1.));
#1386=DIRECTION('',(1.,0.,0.));
#1387=DIRECTION('',(-1.,0.,0.));
#1388=DIRECTION('',(-1.,0.,0.));
#1389=DIRECTION('',(0.,-1.,0.));
#1390=DIRECTION('',(0.,0.,-1.));
#1391=DIRECTION('',(0.,1.,0.));
#1392=DIRECTION('',(0.,0.,1.));
#1393=DIRECTION('',(0.,1.,0.));
#1394=DIRECTION('',(0.,0.,1.));
#1395=DIRECTION('',(0.,1.,0.));
#1396=DIRECTION('',(-1.,0.,0.));
#1397=DIRECTION('',(0.,0.,-1.));
#1398=DIRECTION('',(0.,1.,0.));
#1399=DIRECTION('',(0.,0.,1.));
#1400=DIRECTION('',(-1.,0.,0.));
#1401=DIRECTION('',(0.,1.,0.));
#1402=DIRECTION('',(0.,0.,1.));
#1403=DIRECTION('',(0.,0.,-1.));
#1404=DIRECTION('',(0.,1.,0.));
#1405=DIRECTION('',(0.,0.,1.));
#1406=DIRECTION('',(-1.,0.,0.));
#1407=DIRECTION('',(0.,1.,0.));
#1408=DIRECTION('',(0.,0.,1.));
#1409=DIRECTION('',(0.,0.,1.));
#1410=DIRECTION('',(0.599999999999963,0.,0.800000000000028));
#1411=DIRECTION('',(1.,0.,0.));
#1412=DIRECTION('',(-0.6,0.,0.8));
#1413=DIRECTION('',(0.,0.,1.));
#1414=DIRECTION('',(0.,1.,0.));
#1415=DIRECTION('',(0.,0.,1.));
#1416=DIRECTION('',(0.,1.,0.));
#1417=DIRECTION('',(0.,0.,1.));
#1418=DIRECTION('',(-1.,0.,0.));
#1419=DIRECTION('',(0.,1.,0.));
#1420=DIRECTION('',(0.,0.,1.));
#1421=DIRECTION('',(0.,1.,0.));
#1422=DIRECTION('',(0.,0.,1.));
#1423=DIRECTION('',(0.,1.,0.));
#1424=DIRECTION('',(-1.,0.,0.));
#1425=DIRECTION('',(1.,0.,0.));
#1426=DIRECTION('',(0.,1.,0.));
#1427=DIRECTION('',(0.,0.,1.));
#1428=DIRECTION('',(0.,1.,0.));
#1429=DIRECTION('',(0.,0.,1.));
#1430=DIRECTION('',(1.,0.,0.));
#1431=DIRECTION('',(0.,0.,-1.));
#1432=DIRECTION('',(0.,-1.,0.));
#1433=DIRECTION('',(0.,0.500000000000017,0.866025403784429));
#1434=DIRECTION('',(0.,0.866025403784157,-0.500000000000488));
#1435=DIRECTION('',(0.,-0.500000000000017,-0.866025403784429));
#1436=DIRECTION('',(0.,-0.866025403784429,0.500000000000017));
#1437=DIRECTION('',(0.,-0.500000000000017,-0.866025403784429));
#1438=DIRECTION('',(0.,0.866025403784429,-0.500000000000017));
#1439=DIRECTION('',(0.,0.500000000000017,0.866025403784429));
#1440=DIRECTION('',(0.,0.866025403784429,-0.500000000000017));
#1441=DIRECTION('',(0.,-0.866025403784429,0.500000000000017));
#1442=DIRECTION('',(0.,-0.500000000000017,-0.866025403784429));
#1443=DIRECTION('',(0.,0.500000000000017,0.866025403784429));
#1444=DIRECTION('',(0.,-0.866025403784429,0.500000000000017));
#1445=DIRECTION('',(-1.,0.,0.));
#1446=DIRECTION('',(0.,0.866025403784429,-0.500000000000017));
#1447=DIRECTION('',(1.,0.,0.));
#1448=DIRECTION('',(0.,-0.866025403784429,0.500000000000017));
#1449=DIRECTION('',(0.,-0.500000000000017,-0.866025403784429));
#1450=DIRECTION('',(0.,0.866025403784429,-0.500000000000017));
#1451=DIRECTION('',(0.,0.500000000000017,0.866025403784429));
#1452=DIRECTION('',(0.,0.866025403784429,-0.500000000000017));
#1453=DIRECTION('',(0.,-0.866025403784429,0.500000000000017));
#1454=DIRECTION('',(0.,-0.500000000000017,-0.866025403784429));
#1455=DIRECTION('',(1.,0.,0.));
#1456=DIRECTION('',(0.,0.,-1.));
#1457=DIRECTION('',(0.,-0.500000000000017,-0.866025403784429));
#1458=DIRECTION('',(0.,1.,0.));
#1459=DIRECTION('',(0.,-0.500000000000017,-0.866025403784429));
#1460=DIRECTION('',(0.,0.866025403784429,-0.500000000000017));
#1461=DIRECTION('',(-1.,0.,0.));
#1462=DIRECTION('',(0.,-0.866025403784429,0.500000000000017));
#1463=DIRECTION('',(0.,-0.500000000000017,-0.866025403784429));
#1464=DIRECTION('',(0.,-0.866025403784429,0.500000000000017));
#1465=DIRECTION('',(0.,-0.500000000000017,-0.866025403784429));
#1466=DIRECTION('',(0.,-0.866025403784429,0.500000000000017));
#1467=DIRECTION('',(0.,-0.500000000000017,-0.866025403784429));
#1468=DIRECTION('',(0.,-0.866025403784429,0.500000000000017));
#1469=DIRECTION('',(0.,-0.500000000000017,-0.866025403784429));
#1470=DIRECTION('',(1.,0.,0.));
#1471=DIRECTION('',(-0.544704779401881,-0.419313934688795,-0.726273039202578));
#1472=DIRECTION('',(0.,0.866025403784429,-0.500000000000017));
#1473=DIRECTION('',(0.,-0.500000000000017,-0.866025403784429));
#1474=DIRECTION('',(0.,-0.500000000000017,-0.866025403784429));
#1475=DIRECTION('',(0.,0.866025403784429,-0.500000000000017));
#1476=DIRECTION('',(0.,0.500000000000017,0.866025403784429));
#1477=DIRECTION('',(1.,0.,0.));
#1478=DIRECTION('',(0.,0.866025403784429,-0.500000000000017));
#1479=DIRECTION('',(0.,0.500000000000017,0.866025403784429));
#1480=DIRECTION('',(0.,-0.500000000000017,-0.866025403784429));
#1481=DIRECTION('',(0.,0.866025403784429,-0.500000000000017));
#1482=DIRECTION('',(0.,-0.500000000000017,-0.866025403784429));
#1483=DIRECTION('',(-0.544704779401917,0.419313934688783,0.726273039202558));
#1484=DIRECTION('',(0.,-0.866025403784429,0.500000000000017));
#1485=DIRECTION('',(1.,0.,0.));
#1486=DIRECTION('',(0.,-0.866025403784429,0.500000000000017));
#1487=DIRECTION('',(0.,-0.500000000000017,-0.866025403784429));
#1488=DIRECTION('',(0.,-0.866025403784429,0.500000000000017));
#1489=DIRECTION('',(0.,-0.500000000000017,-0.866025403784429));
#1490=DIRECTION('',(0.,-0.866025403784429,0.500000000000017));
#1491=DIRECTION('',(0.,-0.500000000000017,-0.866025403784429));
#1492=DIRECTION('',(0.,-0.866025403784429,0.500000000000017));
#1493=DIRECTION('',(0.,-0.500000000000017,-0.866025403784429));
#1494=DIRECTION('',(-0.544704779401917,-0.419313934688783,-0.726273039202558));
#1495=DIRECTION('',(0.,-0.866025403784429,0.500000000000017));
#1496=DIRECTION('',(0.,-0.500000000000017,-0.866025403784429));
#1497=DIRECTION('',(1.,0.,0.));
#1498=DIRECTION('',(0.,-0.866025403784429,0.500000000000017));
#1499=DIRECTION('',(0.,-0.500000000000017,-0.866025403784429));
#1500=DIRECTION('',(0.544704779401917,-0.419313934688783,-0.726273039202558));
#1501=DIRECTION('',(0.,-0.866025403784429,0.500000000000017));
#1502=DIRECTION('',(0.,-0.500000000000017,-0.866025403784429));
#1503=DIRECTION('',(0.,-0.866025403784429,0.500000000000017));
#1504=DIRECTION('',(0.,-0.500000000000017,-0.866025403784429));
#1505=DIRECTION('',(0.,-0.866025403784429,0.500000000000017));
#1506=DIRECTION('',(0.,-0.500000000000017,-0.866025403784429));
#1507=DIRECTION('',(0.,-0.866025403784429,0.500000000000017));
#1508=DIRECTION('',(0.,-0.500000000000017,-0.866025403784429));
#1509=DIRECTION('',(0.,-0.866025403784429,0.500000000000017));
#1510=DIRECTION('',(0.,-0.500000000000017,-0.866025403784429));
#1511=DIRECTION('',(0.,-0.866025403784429,0.500000000000017));
#1512=DIRECTION('',(0.,-0.500000000000017,-0.866025403784429));
#1513=DIRECTION('',(0.800000000000028,0.,-0.599999999999963));
#1514=DIRECTION('',(-0.599999999999963,0.,-0.800000000000028));
#1515=DIRECTION('',(0.599999999999963,0.,0.800000000000028));
#1516=DIRECTION('',(0.,-1.,0.));
#1517=DIRECTION('',(0.,1.,0.));
#1518=DIRECTION('',(-0.544704779401881,-0.419313934688795,-0.726273039202578));
#1519=DIRECTION('',(0.8,0.,0.6));
#1520=DIRECTION('',(0.6,0.,-0.8));
#1521=DIRECTION('',(0.6,0.,-0.8));
#1522=DIRECTION('',(0.544704779401917,-0.419313934688783,-0.726273039202558));
#1523=DIRECTION('',(0.,-1.,0.));
#1524=DIRECTION('',(0.,-1.,0.));
#1525=DIRECTION('',(1.,0.,0.));
#1526=DIRECTION('',(0.,0.,-1.));
#1527=DIRECTION('',(1.,0.,0.));
#1528=DIRECTION('',(0.,0.,-1.));
#1529=DIRECTION('',(1.,0.,0.));
#1530=DIRECTION('',(0.,0.,-1.));
#1531=DIRECTION('',(0.,-1.,0.));
#1532=DIRECTION('',(0.,0.,-1.));
#1533=DIRECTION('',(0.,-0.654653670707961,0.755928946018469));
#1534=DIRECTION('',(0.,-0.755928946018469,-0.654653670707961));
#1535=DIRECTION('',(0.,-1.,0.));
#1536=DIRECTION('',(0.,0.,-1.));
#1537=DIRECTION('',(0.,-0.654653670707961,0.755928946018469));
#1538=DIRECTION('',(0.,-0.755928946018469,-0.654653670707961));
#1539=DIRECTION('',(1.,0.,0.));
#1540=DIRECTION('',(0.,0.,-1.));
#1541=DIRECTION('',(0.,0.,-1.));
#1542=DIRECTION('',(-1.,0.,0.));
#1543=DIRECTION('',(0.,0.,-1.));
#1544=DIRECTION('',(-1.,0.,0.));
#1545=DIRECTION('',(0.,0.,1.));
#1546=DIRECTION('',(1.,0.,0.));
#1547=DIRECTION('',(0.,1.,0.));
#1548=DIRECTION('',(0.,0.,1.));
#1549=DIRECTION('',(-0.721451083953371,0.,0.692465402357768));
#1550=DIRECTION('',(0.692465402357768,0.,0.721451083953371));
#1551=DIRECTION('',(0.,1.,0.));
#1552=DIRECTION('',(0.,0.,1.));
#1553=DIRECTION('',(1.,0.,0.));
#1554=DIRECTION('',(0.,0.,-1.));
#1555=DIRECTION('',(-1.,0.,0.));
#1556=DIRECTION('',(0.,0.,1.));
#1557=DIRECTION('',(1.,0.,0.));
#1558=DIRECTION('',(0.,0.,-1.));
#1559=DIRECTION('',(0.,1.,0.));
#1560=DIRECTION('',(0.,0.,1.));
#1561=DIRECTION('',(-0.72145108395337,0.,-0.69246540235777));
#1562=DIRECTION('',(-0.69246540235777,0.,0.72145108395337));
#1563=DIRECTION('',(0.,1.,0.));
#1564=DIRECTION('',(0.,0.,1.));
#1565=DIRECTION('',(0.,0.,-1.));
#1566=DIRECTION('',(-1.,0.,0.));
#1567=DIRECTION('',(0.,0.,1.));
#1568=DIRECTION('',(1.,0.,0.));
#1569=DIRECTION('',(0.,0.,1.));
#1570=DIRECTION('',(1.,0.,0.));
#1571=DIRECTION('',(0.,1.,0.));
#1572=DIRECTION('',(0.,0.,1.));
#1573=DIRECTION('',(1.,0.,0.));
#1574=DIRECTION('',(0.,0.,-1.));
#1575=DIRECTION('',(0.,0.,1.));
#1576=DIRECTION('',(1.,0.,0.));
#1577=DIRECTION('',(0.,0.,1.));
#1578=DIRECTION('',(1.,0.,0.));
#1579=DIRECTION('',(0.,0.,1.));
#1580=DIRECTION('',(1.,0.,0.));
#1581=DIRECTION('',(-1.,0.,0.));
#1582=DIRECTION('',(0.,0.,1.));
#1583=DIRECTION('',(1.,0.,0.));
#1584=DIRECTION('',(0.,0.,-1.));
#1585=DIRECTION('',(0.,1.,0.));
#1586=DIRECTION('',(0.,0.,1.));
#1587=DIRECTION('',(1.,0.,0.));
#1588=DIRECTION('',(0.,0.,-1.));
#1589=DIRECTION('',(0.,1.,0.));
#1590=DIRECTION('',(0.,0.,1.));
#1591=DIRECTION('',(0.,0.,1.));
#1592=DIRECTION('',(1.,0.,0.));
#1593=DIRECTION('',(1.,0.,0.));
#1594=DIRECTION('',(0.,0.,-1.));
#1595=DIRECTION('',(1.,0.,0.));
#1596=DIRECTION('',(0.,0.,-1.));
#1597=DIRECTION('',(0.,0.,-1.));
#1598=DIRECTION('',(-1.,0.,0.));
#1599=DIRECTION('',(0.,0.,1.));
#1600=DIRECTION('',(1.,0.,0.));
#1601=DIRECTION('',(0.,1.,0.));
#1602=DIRECTION('',(0.,0.,1.));
#1603=DIRECTION('',(0.,-1.,0.));
#1604=DIRECTION('',(0.,0.,-1.));
#1605=DIRECTION('',(0.,1.,0.));
#1606=DIRECTION('',(0.,0.,1.));
#1607=DIRECTION('',(-0.8,0.,-0.6));
#1608=DIRECTION('',(-0.6,0.,0.8));
#1609=DIRECTION('',(0.6,2.08166817117216E-15,-0.8));
#1610=DIRECTION('',(-0.8,0.,-0.6));
#1611=DIRECTION('',(-0.6,0.,0.8));
#1612=DIRECTION('',(0.8,0.,0.6));
#1613=DIRECTION('',(0.6,-2.08166817117216E-15,-0.8));
#1614=DIRECTION('',(-0.8,0.,-0.6));
#1615=DIRECTION('',(-0.8,0.,-0.6));
#1616=DIRECTION('',(-0.6,0.,0.8));
#1617=DIRECTION('',(0.544704779401914,-0.419313934688786,-0.726273039202558));
#1618=DIRECTION('',(-0.8,0.,-0.6));
#1619=DIRECTION('',(-0.544704779401917,0.419313934688783,0.726273039202558));
#1620=DIRECTION('',(0.8,0.,0.6));
#1621=DIRECTION('',(0.544704779401915,-0.419313934688782,-0.72627303920256));
#1622=DIRECTION('',(-0.8,0.,-0.6));
#1623=DIRECTION('',(0.,-0.500000000000015,-0.86602540378443));
#1624=DIRECTION('',(0.,0.86602540378443,-0.500000000000015));
#1625=DIRECTION('',(0.,-0.500000000000017,-0.866025403784429));
#1626=DIRECTION('',(0.,0.866025403784429,-0.500000000000017));
#1627=DIRECTION('',(0.,-0.49999999999921,-0.866025403784895));
#1628=DIRECTION('',(0.,0.866025403784895,-0.49999999999921));
#1629=DIRECTION('',(0.,0.866025403784429,-0.500000000000017));
#1630=DIRECTION('',(0.,0.500000000000017,0.866025403784429));
#1631=DIRECTION('',(1.,0.,0.));
#1632=DIRECTION('',(0.,0.,-1.));
#1633=DIRECTION('',(1.,0.,0.));
#1634=DIRECTION('',(0.,0.,-1.));
#1635=DIRECTION('',(1.,0.,0.));
#1636=DIRECTION('',(0.,0.,-1.));
#1637=DIRECTION('',(0.,0.866025403784429,-0.500000000000017));
#1638=DIRECTION('',(0.,0.500000000000017,0.866025403784429));
#1639=DIRECTION('',(-3.05547013689016E-13,0.499999999999752,0.866025403784582));
#1640=DIRECTION('',(0.,-0.866025403784582,0.499999999999752));
#1641=DIRECTION('',(0.,-0.500000000000017,-0.866025403784429));
#1642=DIRECTION('',(0.,0.866025403784429,-0.500000000000017));
#1643=DIRECTION('',(0.,0.500000000000015,0.86602540378443));
#1644=DIRECTION('',(0.,-0.86602540378443,0.500000000000015));
#1645=DIRECTION('',(0.544704779401881,0.419313934688795,0.726273039202578));
#1646=DIRECTION('',(0.800000000000028,0.,-0.599999999999963));
#1647=DIRECTION('',(-0.544704779401881,-0.419313934688795,-0.726273039202578));
#1648=DIRECTION('',(-0.800000000000028,0.,0.599999999999963));
#1649=DIRECTION('',(0.544704779401881,0.419313934688795,0.726273039202578));
#1650=DIRECTION('',(0.800000000000028,0.,-0.599999999999963));
#1651=DIRECTION('',(0.,-1.,0.));
#1652=DIRECTION('',(0.,0.,-1.));
#1653=DIRECTION('',(0.,1.,0.));
#1654=DIRECTION('',(0.,0.,1.));
#1655=DIRECTION('',(0.800000000000028,0.,-0.599999999999963));
#1656=DIRECTION('',(-0.599999999999963,0.,-0.800000000000028));
#1657=DIRECTION('',(0.599999999999963,2.08166817117204E-15,0.800000000000028));
#1658=DIRECTION('',(0.800000000000028,0.,-0.599999999999963));
#1659=DIRECTION('',(0.800000000000028,0.,-0.599999999999963));
#1660=DIRECTION('',(-0.599999999999963,0.,-0.800000000000028));
#1661=DIRECTION('',(-0.599999999999963,0.,-0.800000000000028));
#1662=DIRECTION('',(-0.800000000000028,0.,0.599999999999963));
#1663=DIRECTION('',(0.599999999999963,0.,0.800000000000028));
#1664=DIRECTION('',(0.800000000000028,0.,-0.599999999999963));
#1665=CARTESIAN_POINT('',(0.,0.,0.));
#1666=CARTESIAN_POINT('',(0.013,8.67361737988404E-19,-0.0084));
#1667=CARTESIAN_POINT('',(0.013,-0.003,-0.0084));
#1668=CARTESIAN_POINT('',(0.013,-0.003,-0.0158333333333334));
#1669=CARTESIAN_POINT('',(0.013,-0.003,-0.0012226531943791));
#1670=CARTESIAN_POINT('',(0.013,8.67361737988404E-19,-0.0158333333333334));
#1671=CARTESIAN_POINT('',(0.013,-0.0005,-0.0158333333333334));
#1672=CARTESIAN_POINT('',(0.013,-0.0005,-0.0084));
#1673=CARTESIAN_POINT('',(0.013,-0.0005,-0.0012226531943791));
#1674=CARTESIAN_POINT('',(0.013,8.67361737988404E-19,-0.0012226531943791));
#1675=CARTESIAN_POINT('',(-0.013,8.67361737988404E-19,-0.0084));
#1676=CARTESIAN_POINT('',(-0.013,-0.0005,-0.0158660254037887));
#1677=CARTESIAN_POINT('',(-0.013,-0.0005,-0.0012226531943791));
#1678=CARTESIAN_POINT('',(-0.013,-0.0005,-0.0158333333333334));
#1679=CARTESIAN_POINT('',(-0.013,-0.00301828347799885,-0.0158333333333334));
#1680=CARTESIAN_POINT('',(-0.013,-0.003,-0.0158333333333334));
#1681=CARTESIAN_POINT('',(-0.013,-0.003,-0.0084));
#1682=CARTESIAN_POINT('',(-0.013,-0.003,-0.0012226531943791));
#1683=CARTESIAN_POINT('',(-0.013,8.67361737988404E-19,-0.0012226531943791));
#1684=CARTESIAN_POINT('',(-0.014053,8.67361737988404E-19,-0.00122265319437911));
#1685=CARTESIAN_POINT('',(-0.0133238339313173,8.67361737988404E-19,-0.000462965202976192));
#1686=CARTESIAN_POINT('',(-0.0133238339313173,-0.0005,-0.000462965202976192));
#1687=CARTESIAN_POINT('',(-0.0133238339313173,-0.003,-0.000462965202976192));
#1688=CARTESIAN_POINT('',(-0.014053,-0.0005,-0.00122265319437911));
#1689=CARTESIAN_POINT('',(-0.014053,-0.003,-0.00122265319437911));
#1690=CARTESIAN_POINT('',(-0.01,8.67361737988404E-19,0.003));
#1691=CARTESIAN_POINT('',(-0.01,8.67361737988404E-19,0.0078));
#1692=CARTESIAN_POINT('',(-0.01,-0.0005,0.0078));
#1693=CARTESIAN_POINT('',(-0.01,-0.003,0.0078));
#1694=CARTESIAN_POINT('',(-0.01,-0.0005,0.003));
#1695=CARTESIAN_POINT('',(-0.01,-0.003,0.003));
#1696=CARTESIAN_POINT('',(0.,8.67361737988404E-19,0.0078));
#1697=CARTESIAN_POINT('',(0.01,8.67361737988404E-19,0.0078));
#1698=CARTESIAN_POINT('',(0.01,-0.0005,0.0078));
#1699=CARTESIAN_POINT('',(0.01,-0.003,0.0078));
#1700=CARTESIAN_POINT('',(0.,-0.0005,0.0078));
#1701=CARTESIAN_POINT('',(0.,-0.003,0.0078));
#1702=CARTESIAN_POINT('',(0.01,8.67361737988404E-19,0.003));
#1703=CARTESIAN_POINT('',(0.0133238339313173,8.67361737988404E-19,-0.000462965202976193));
#1704=CARTESIAN_POINT('',(0.0133238339313173,-0.0005,-0.000462965202976193));
#1705=CARTESIAN_POINT('',(0.0133238339313173,-0.003,-0.000462965202976193));
#1706=CARTESIAN_POINT('',(0.01,-0.0005,0.003));
#1707=CARTESIAN_POINT('',(0.01,-0.003,0.003));
#1708=CARTESIAN_POINT('',(-0.007,8.67361737988404E-19,-0.0048));
#1709=CARTESIAN_POINT('',(-0.01,8.67361737988404E-19,-0.0048));
#1710=CARTESIAN_POINT('',(-0.01,-0.0005,-0.0048));
#1711=CARTESIAN_POINT('',(-0.01,-0.003,-0.0048));
#1712=CARTESIAN_POINT('',(-0.007,-0.0005,-0.0048));
#1713=CARTESIAN_POINT('',(-0.007,-0.0005,-0.0018));
#1714=CARTESIAN_POINT('',(-0.007,8.67361737988404E-19,-0.0018));
#1715=CARTESIAN_POINT('',(-0.007,-0.003,-0.0018));
#1716=CARTESIAN_POINT('',(-0.007,-0.003,-0.0048));
#1717=CARTESIAN_POINT('',(-0.01,8.67361737988404E-19,-0.0074));
#1718=CARTESIAN_POINT('',(-0.01,8.67361737988404E-19,-0.01));
#1719=CARTESIAN_POINT('',(-0.01,-0.0005,-0.01));
#1720=CARTESIAN_POINT('',(-0.01,-0.003,-0.01));
#1721=CARTESIAN_POINT('',(-0.01,-0.0005,-0.0048));
#1722=CARTESIAN_POINT('',(-0.01,-0.003,-0.0074));
#1723=CARTESIAN_POINT('',(-0.007,8.67361737988404E-19,-0.01));
#1724=CARTESIAN_POINT('',(-0.007,8.67361737988404E-19,-0.013));
#1725=CARTESIAN_POINT('',(-0.007,-0.0005,-0.013));
#1726=CARTESIAN_POINT('',(-0.007,-0.003,-0.013));
#1727=CARTESIAN_POINT('',(-0.007,-0.0005,-0.01));
#1728=CARTESIAN_POINT('',(-0.007,-0.003,-0.01));
#1729=CARTESIAN_POINT('',(-1.7347234759768E-18,8.67361737988404E-19,-0.013));
#1730=CARTESIAN_POINT('',(0.007,8.67361737988404E-19,-0.013));
#1731=CARTESIAN_POINT('',(0.007,-0.0005,-0.013));
#1732=CARTESIAN_POINT('',(0.007,-0.003,-0.013));
#1733=CARTESIAN_POINT('',(-1.7347234759768E-18,-0.0005,-0.013));
#1734=CARTESIAN_POINT('',(-1.7347234759768E-18,-0.003,-0.013));
#1735=CARTESIAN_POINT('',(0.007,8.67361737988404E-19,-0.01));
#1736=CARTESIAN_POINT('',(0.01,8.67361737988404E-19,-0.01));
#1737=CARTESIAN_POINT('',(0.01,-0.0005,-0.01));
#1738=CARTESIAN_POINT('',(0.01,-0.003,-0.01));
#1739=CARTESIAN_POINT('',(0.007,-0.0005,-0.01));
#1740=CARTESIAN_POINT('',(0.007,-0.003,-0.01));
#1741=CARTESIAN_POINT('',(0.01,8.67361737988404E-19,-0.0074));
#1742=CARTESIAN_POINT('',(0.01,8.67361737988404E-19,-0.0048));
#1743=CARTESIAN_POINT('',(0.01,-0.0005,-0.0048));
#1744=CARTESIAN_POINT('',(0.01,-0.003,-0.0048));
#1745=CARTESIAN_POINT('',(0.01,-0.0005,-0.0074));
#1746=CARTESIAN_POINT('',(0.01,-0.003,-0.0074));
#1747=CARTESIAN_POINT('',(0.007,8.67361737988404E-19,-0.0048));
#1748=CARTESIAN_POINT('',(0.007,8.67361737988404E-19,-0.0018));
#1749=CARTESIAN_POINT('',(0.007,-0.0005,-0.0018));
#1750=CARTESIAN_POINT('',(0.007,-0.003,-0.0018));
#1751=CARTESIAN_POINT('',(0.007,-0.0005,-0.0048));
#1752=CARTESIAN_POINT('',(0.007,-0.003,-0.0048));
#1753=CARTESIAN_POINT('',(0.01,8.67361737988404E-19,0.003));
#1754=CARTESIAN_POINT('',(0.01,8.67361737988404E-19,0.003));
#1755=CARTESIAN_POINT('',(0.01,8.67361737988404E-19,0.0048));
#1756=CARTESIAN_POINT('',(0.01,-0.003,0.003));
#1757=CARTESIAN_POINT('',(0.01,-0.003,0.0048));
#1758=CARTESIAN_POINT('',(0.014053,8.67361737988404E-19,-0.0012226531943791));
#1759=CARTESIAN_POINT('',(0.014053,-0.0005,-0.0012226531943791));
#1760=CARTESIAN_POINT('',(0.014053,-0.003,-0.0012226531943791));
#1761=CARTESIAN_POINT('',(-1.7347234759768E-18,8.67361737988404E-19,-0.0018));
#1762=CARTESIAN_POINT('',(0.007,-0.0005,-0.0018));
#1763=CARTESIAN_POINT('',(-1.7347234759768E-18,-0.003,-0.0018));
#1764=CARTESIAN_POINT('',(-0.01,8.67361737988404E-19,0.003));
#1765=CARTESIAN_POINT('',(-0.01,8.67361737988404E-19,0.003));
#1766=CARTESIAN_POINT('',(-0.01,8.67361737988404E-19,0.0048));
#1767=CARTESIAN_POINT('',(-0.01,-0.003,0.003));
#1768=CARTESIAN_POINT('',(-0.01,-0.003,0.0048));
#1769=CARTESIAN_POINT('',(0.,8.67361737988404E-19,0.003));
#1770=CARTESIAN_POINT('',(0.0105,8.67361737988404E-19,0.003));
#1771=CARTESIAN_POINT('',(0.0105,8.67361737988404E-19,-0.01));
#1772=CARTESIAN_POINT('',(0.0105,8.67361737988404E-19,-0.0048));
#1773=CARTESIAN_POINT('',(0.007,8.67361737988404E-19,-0.0048));
#1774=CARTESIAN_POINT('',(0.007,8.67361737988404E-19,-0.0013));
#1775=CARTESIAN_POINT('',(-0.007,8.67361737988404E-19,-0.0013));
#1776=CARTESIAN_POINT('',(-0.007,8.67361737988404E-19,-0.0013));
#1777=CARTESIAN_POINT('',(-0.007,8.67361737988404E-19,-0.0048));
#1778=CARTESIAN_POINT('',(-0.0105,8.67361737988404E-19,-0.0048));
#1779=CARTESIAN_POINT('',(-0.0105,8.67361737988404E-19,-0.01));
#1780=CARTESIAN_POINT('',(-0.0105,8.67361737988404E-19,-0.01));
#1781=CARTESIAN_POINT('',(-0.007,8.67361737988404E-19,-0.01));
#1782=CARTESIAN_POINT('',(-0.007,8.67361737988404E-19,-0.0135));
#1783=CARTESIAN_POINT('',(0.,8.67361737988404E-19,-0.0135));
#1784=CARTESIAN_POINT('',(0.007,8.67361737988404E-19,-0.0135));
#1785=CARTESIAN_POINT('',(0.007,8.67361737988404E-19,-0.01));
#1786=CARTESIAN_POINT('',(0.0125,8.67361737988404E-19,0.003));
#1787=CARTESIAN_POINT('',(0.0125,8.67361737988404E-19,-0.0012226531943791));
#1788=CARTESIAN_POINT('',(0.0125,8.67361737988404E-19,-0.0158333333333334));
#1789=CARTESIAN_POINT('',(0.0170400000000003,8.67361737988404E-19,-0.009779999999999));
#1790=CARTESIAN_POINT('',(0.0124754809471585,8.67361737988404E-19,-0.0158660254037887));
#1791=CARTESIAN_POINT('',(0.,8.67361737988404E-19,-0.0158660254037887));
#1792=CARTESIAN_POINT('',(-0.0124754809471585,8.67361737988404E-19,-0.0158660254037887));
#1793=CARTESIAN_POINT('',(-0.01704,8.67361737988404E-19,-0.00978));
#1794=CARTESIAN_POINT('',(-0.0125,8.67361737988404E-19,-0.0158333333333334));
#1795=CARTESIAN_POINT('',(-0.0125,8.67361737988404E-19,-0.0012226531943791));
#1796=CARTESIAN_POINT('',(-0.0125,8.67361737988404E-19,-0.0012226531943791));
#1797=CARTESIAN_POINT('',(-0.014053,8.67361737988404E-19,-0.00122265319437911));
#1798=CARTESIAN_POINT('',(-0.0129776012301384,8.67361737988404E-19,-0.000102239660999503));
#1799=CARTESIAN_POINT('',(-0.01,8.67361737988404E-19,0.003));
#1800=CARTESIAN_POINT('',(-0.01,8.67361737988404E-19,0.0073));
#1801=CARTESIAN_POINT('',(0.,8.67361737988404E-19,0.0073));
#1802=CARTESIAN_POINT('',(0.01,8.67361737988404E-19,0.0073));
#1803=CARTESIAN_POINT('',(0.01,8.67361737988404E-19,0.003));
#1804=CARTESIAN_POINT('',(0.0129776012301384,8.67361737988404E-19,-0.00010223966099951));
#1805=CARTESIAN_POINT('',(0.014053,8.67361737988404E-19,-0.0012226531943791));
#1806=CARTESIAN_POINT('',(0.,-0.003,0.003));
#1807=CARTESIAN_POINT('',(0.,-0.003,-0.0158660254037844));
#1808=CARTESIAN_POINT('',(-0.012998930083809,-0.003,-0.0158660254037844));
#1809=CARTESIAN_POINT('',(0.012998930083809,-0.003,-0.0158660254037844));
#1810=CARTESIAN_POINT('',(0.0125,-0.003,-0.0158333333333334));
#1811=CARTESIAN_POINT('',(-0.0125,-0.003,-0.0158333333333334));
#1812=CARTESIAN_POINT('',(-0.01,0.,0.));
#1813=CARTESIAN_POINT('',(-0.01,-0.00230940107675639,-0.0201666666666666));
#1814=CARTESIAN_POINT('',(-0.01,-0.00540562612162354,-0.0201666666666666));
#1815=CARTESIAN_POINT('',(-0.01,-0.00298297639081074,-0.0201666666666666));
#1816=CARTESIAN_POINT('',(-0.01,0.00649519052838528,-0.00375000000000132));
#1817=CARTESIAN_POINT('',(-0.01,-0.00768856620135548,-0.0283169872981082));
#1818=CARTESIAN_POINT('',(-0.01,-0.00950555349946448,-0.0272679491924295));
#1819=CARTESIAN_POINT('',(-0.01,-0.00950555349946448,-0.0272679491924295));
#1820=CARTESIAN_POINT('',(-0.01,-0.00740747728811154,-0.0236339745962147));
#1821=CARTESIAN_POINT('',(-0.008,-0.00950555349946412,-0.0272679491924289));
#1822=CARTESIAN_POINT('',(-0.008,-0.00768856620135456,-0.0283169872981066));
#1823=CARTESIAN_POINT('',(-0.008,-0.00868856620135459,-0.0300490381056755));
#1824=CARTESIAN_POINT('',(-0.008,-0.0105055534994642,-0.0289999999999977));
#1825=CARTESIAN_POINT('',(-0.008,-0.0105055534994642,-0.0289999999999977));
#1826=CARTESIAN_POINT('',(-0.008,-0.00950555349946412,-0.0272679491924289));
#1827=CARTESIAN_POINT('',(0.,-0.0151837567297415,-0.0262990381056769));
#1828=CARTESIAN_POINT('',(0.,-0.00868856620135617,-0.0300490381056782));
#1829=CARTESIAN_POINT('',(0.008,-0.00868856620135616,-0.0300490381056782));
#1830=CARTESIAN_POINT('',(0.008,-0.0105055534994657,-0.0290000000000005));
#1831=CARTESIAN_POINT('',(0.008,-0.0105055534994657,-0.0290000000000005));
#1832=CARTESIAN_POINT('',(-8.67361737988404E-19,-0.0105055534994657,-0.0290000000000005));
#1833=CARTESIAN_POINT('',(0.008,-0.00950555349946546,-0.0272679491924312));
#1834=CARTESIAN_POINT('',(0.008,-0.00768856620135589,-0.0283169872981089));
#1835=CARTESIAN_POINT('',(0.01,-0.00768856620135558,-0.0283169872981084));
#1836=CARTESIAN_POINT('',(0.01,-0.00950555349946515,-0.0272679491924307));
#1837=CARTESIAN_POINT('',(0.01,-0.00950555349946515,-0.0272679491924307));
#1838=CARTESIAN_POINT('',(0.008,-0.00950555349946546,-0.0272679491924312));
#1839=CARTESIAN_POINT('',(0.01,0.,0.));
#1840=CARTESIAN_POINT('',(0.01,0.00649519052838528,-0.00375000000000132));
#1841=CARTESIAN_POINT('',(0.01,-0.00298297639081095,-0.020166666666667));
#1842=CARTESIAN_POINT('',(0.01,-0.00530940107675861,-0.020166666666667));
#1843=CARTESIAN_POINT('',(0.01,-0.00540562612162375,-0.020166666666667));
#1844=CARTESIAN_POINT('',(0.01,-0.00740747728811189,-0.0236339745962153));
#1845=CARTESIAN_POINT('',(0.,-0.00528247728811006,-0.0251495190528391));
#1846=CARTESIAN_POINT('',(-0.008,-0.00700555021840154,-0.0281339764905396));
#1847=CARTESIAN_POINT('',(-0.008,-0.00760555021840156,-0.0291732069750809));
#1848=CARTESIAN_POINT('',(0.008,-0.00700555021840154,-0.0281339764905396));
#1849=CARTESIAN_POINT('',(0.008,-0.00760555021840156,-0.0291732069750809));
#1850=CARTESIAN_POINT('',(0.,-0.00700555021840154,-0.0281339764905396));
#1851=CARTESIAN_POINT('',(0.,-0.00760555021840156,-0.0291732069750809));
#1852=CARTESIAN_POINT('',(0.,-0.00500555021840192,-0.0246698748754027));
#1853=CARTESIAN_POINT('',(0.,-0.00583055021840195,-0.026098816791647));
#1854=CARTESIAN_POINT('',(0.,-6.69872981077851E-5,-0.0161160254037887));
#1855=CARTESIAN_POINT('',(-0.0124754809471585,-6.69872981077851E-5,-0.0161160254037887));
#1856=CARTESIAN_POINT('',(0.0124754809471585,-6.69872981077851E-5,-0.0161160254037887));
#1857=CARTESIAN_POINT('',(0.00400904489520648,-0.00658445280967039,-0.0274046068063924));
#1858=CARTESIAN_POINT('',(0.0097,-0.00220355352740496,-0.019816666666667));
#1859=CARTESIAN_POINT('',(0.0105,-0.00254996368891873,-0.020416666666667));
#1860=CARTESIAN_POINT('',(0.0095,-0.00254996368891873,-0.020416666666667));
#1861=CARTESIAN_POINT('',(0.0095,-0.00528247728811006,-0.0251495190528391));
#1862=CARTESIAN_POINT('',(0.0095,-0.00725555349946337,-0.0285669872981084));
#1863=CARTESIAN_POINT('',(0.008,-0.00725555349946368,-0.0285669872981089));
#1864=CARTESIAN_POINT('',(0.008,-0.00800555349946394,-0.029866025403786));
#1865=CARTESIAN_POINT('',(0.,-0.00800555349946394,-0.029866025403786));
#1866=CARTESIAN_POINT('',(-0.008,-0.00800555349946237,-0.0298660254037833));
#1867=CARTESIAN_POINT('',(-0.008,-0.00725555349946234,-0.0285669872981066));
#1868=CARTESIAN_POINT('',(-0.0095,-0.00725555349946304,-0.0285669872981078));
#1869=CARTESIAN_POINT('',(-0.0095,-0.00528247728811006,-0.0251495190528391));
#1870=CARTESIAN_POINT('',(-0.0095,-0.00254996368891852,-0.0204166666666666));
#1871=CARTESIAN_POINT('',(-0.0105,-0.00254996368891852,-0.0204166666666666));
#1872=CARTESIAN_POINT('',(-0.0097,-0.00220355352740473,-0.0198166666666666));
#1873=CARTESIAN_POINT('',(-0.00400904489520579,-0.00658445280967029,-0.0274046068063923));
#1874=CARTESIAN_POINT('',(0.,-0.00790747728811217,-0.0245000000000003));
#1875=CARTESIAN_POINT('',(-0.008,-0.00925555349946579,-0.0268349364905396));
#1876=CARTESIAN_POINT('',(-0.008,-0.00985555349946581,-0.0278741669750809));
#1877=CARTESIAN_POINT('',(0.008,-0.00925555349946579,-0.0268349364905396));
#1878=CARTESIAN_POINT('',(0.008,-0.00985555349946581,-0.0278741669750809));
#1879=CARTESIAN_POINT('',(0.,-0.00925555349946579,-0.0268349364905396));
#1880=CARTESIAN_POINT('',(0.,-0.00985555349946581,-0.0278741669750809));
#1881=CARTESIAN_POINT('',(0.,-0.00725555349946617,-0.0233708348754026));
#1882=CARTESIAN_POINT('',(0.,-0.0080805534994662,-0.0247997767916469));
#1883=CARTESIAN_POINT('',(0.013,-0.003,-0.016));
#1884=CARTESIAN_POINT('',(0.0129,-0.00307698003589194,-0.0161333333333333));
#1885=CARTESIAN_POINT('',(0.0100999999999998,-0.00523242104086679,-0.0198666666666669));
#1886=CARTESIAN_POINT('',(0.0125,-0.00290377495513506,-0.0158333333333334));
#1887=CARTESIAN_POINT('',(0.0129124138616779,-0.00306698729810778,-0.0161160254037844));
#1888=CARTESIAN_POINT('',(0.,-0.00306698729810778,-0.0161160254037844));
#1889=CARTESIAN_POINT('',(-0.0129124138616779,-0.00306698729810778,-0.0161160254037844));
#1890=CARTESIAN_POINT('',(-0.0125,-0.00290377495513505,-0.0158333333333334));
#1891=CARTESIAN_POINT('',(-0.0129,-0.00307698003589195,-0.0161333333333334));
#1892=CARTESIAN_POINT('',(-0.013,-0.003,-0.016));
#1893=CARTESIAN_POINT('',(-0.0101,-0.00523242104086665,-0.0198666666666667));
#1894=CARTESIAN_POINT('',(-0.0105,-0.00540562612162354,-0.0201666666666666));
#1895=CARTESIAN_POINT('',(0.0105,-0.00540562612162375,-0.020166666666667));
#1896=CARTESIAN_POINT('',(0.,-0.00500555021840192,-0.0246698748754027));
#1897=CARTESIAN_POINT('',(0.,-0.00700555021840154,-0.0281339764905396));
#1898=CARTESIAN_POINT('',(0.008,-0.00700555021840154,-0.0281339764905396));
#1899=CARTESIAN_POINT('',(-0.008,-0.00700555021840154,-0.0281339764905396));
#1900=CARTESIAN_POINT('',(0.0160000000000004,0.,-0.0119999999999991));
#1901=CARTESIAN_POINT('',(0.0160000000000004,-0.0005,-0.0119999999999991));
#1902=CARTESIAN_POINT('',(0.0128754809471585,-0.0005,-0.0161660254037886));
#1903=CARTESIAN_POINT('',(0.0129,-0.0005,-0.0161333333333333));
#1904=CARTESIAN_POINT('',(0.0129,0.,-0.0161333333333333));
#1905=CARTESIAN_POINT('',(0.0101,-0.00230940107675639,-0.019866666666667));
#1906=CARTESIAN_POINT('',(0.0101,-0.00263656622929717,-0.019866666666667));
#1907=CARTESIAN_POINT('',(0.0155648351648348,0.0015702658420292,-0.0125802197802199));
#1908=CARTESIAN_POINT('',(-0.016,0.,-0.012));
#1909=CARTESIAN_POINT('',(-0.016,-0.0005,-0.012));
#1910=CARTESIAN_POINT('',(-0.0129,-0.0005,-0.0161333333333333));
#1911=CARTESIAN_POINT('',(-0.0128754809471585,-0.0005,-0.0161660254037886));
#1912=CARTESIAN_POINT('',(-0.0155648351648345,0.00157026584202882,-0.0125802197802206));
#1913=CARTESIAN_POINT('',(-0.0101,-0.00263656622929695,-0.0198666666666667));
#1914=CARTESIAN_POINT('',(-0.0101,-0.00530940107675861,-0.0198666666666667));
#1915=CARTESIAN_POINT('',(-0.0129,-0.000577350269187186,-0.0161333333333333));
#1916=CARTESIAN_POINT('',(0.,-0.0005,-0.0158660254037887));
#1917=CARTESIAN_POINT('',(0.0124754809471585,-0.0005,-0.0158660254037887));
#1918=CARTESIAN_POINT('',(-0.0124754809471585,-0.0005,-0.0158660254037887));
#1919=CARTESIAN_POINT('',(0.0105,0.,-0.020166666666667));
#1920=CARTESIAN_POINT('',(0.0105,-0.00298297639081095,-0.020166666666667));
#1921=CARTESIAN_POINT('',(-0.0105,0.,-0.0201666666666666));
#1922=CARTESIAN_POINT('',(-0.0105,-0.00298297639081074,-0.0201666666666666));
#1923=CARTESIAN_POINT('',(0.,-0.0035,-0.0158660254037844));
#1924=CARTESIAN_POINT('',(0.0129124138616779,-0.00306698729810778,-0.0161160254037844));
#1925=CARTESIAN_POINT('',(0.0129601544607434,-0.00302677611378841,-0.0160463775895108));
#1926=CARTESIAN_POINT('',(0.0129927936851697,-0.003,-0.0159596760611186));
#1927=CARTESIAN_POINT('',(0.012998930083809,-0.003,-0.0158660254037844));
#1928=CARTESIAN_POINT('',(-0.012998930083809,-0.003,-0.0158660254037844));
#1929=CARTESIAN_POINT('',(-0.0129927943821254,-0.003,-0.0159596654245291));
#1930=CARTESIAN_POINT('',(-0.0129601482171321,-0.00302678137268772,-0.0160463866981916));
#1931=CARTESIAN_POINT('',(-0.0129124138616779,-0.00306698729810778,-0.0161160254037844));
#1932=CARTESIAN_POINT('',(-0.0125,-0.0005,0.003));
#1933=CARTESIAN_POINT('',(-0.0125,-0.0005,-0.0158333333333334));
#1934=CARTESIAN_POINT('',(-0.0125,-0.0005,-0.0012226531943791));
#1935=CARTESIAN_POINT('',(-0.014053,-0.0005,-0.00122265319437911));
#1936=CARTESIAN_POINT('',(-0.0129776012301384,-0.0005,-0.000102239660999507));
#1937=CARTESIAN_POINT('',(-0.01,-0.0005,0.003));
#1938=CARTESIAN_POINT('',(-0.01,-0.0005,0.0073));
#1939=CARTESIAN_POINT('',(0.,-0.0005,0.0073));
#1940=CARTESIAN_POINT('',(0.01,-0.0005,0.0073));
#1941=CARTESIAN_POINT('',(0.01,-0.0005,0.003));
#1942=CARTESIAN_POINT('',(0.0129776012301384,-0.0005,-0.00010223966099951));
#1943=CARTESIAN_POINT('',(0.014053,-0.0005,-0.0012226531943791));
#1944=CARTESIAN_POINT('',(0.0125,-0.0005,-0.0012226531943791));
#1945=CARTESIAN_POINT('',(0.0125,-0.0005,-0.0084));
#1946=CARTESIAN_POINT('',(0.0125,-0.0005,-0.0158333333333334));
#1947=CARTESIAN_POINT('',(-0.007,-0.0005,-0.01));
#1948=CARTESIAN_POINT('',(-0.007,-0.0005,-0.0135));
#1949=CARTESIAN_POINT('',(-0.0105,-0.0005,-0.01));
#1950=CARTESIAN_POINT('',(-0.0105,-0.0005,0.003));
#1951=CARTESIAN_POINT('',(-0.0105,-0.0005,-0.0048));
#1952=CARTESIAN_POINT('',(-1.7347234759768E-18,-0.0005,-0.0135));
#1953=CARTESIAN_POINT('',(0.007,-0.0005,-0.0135));
#1954=CARTESIAN_POINT('',(-0.007,-0.0005,-0.0048));
#1955=CARTESIAN_POINT('',(-0.007,-0.0005,-0.0013));
#1956=CARTESIAN_POINT('',(0.007,-0.0005,-0.01));
#1957=CARTESIAN_POINT('',(0.0105,-0.0005,-0.01));
#1958=CARTESIAN_POINT('',(0.,-0.0005,-0.0013));
#1959=CARTESIAN_POINT('',(0.007,-0.0005,-0.0013));
#1960=CARTESIAN_POINT('',(0.0105,-0.0005,-0.0074));
#1961=CARTESIAN_POINT('',(0.0105,-0.0005,-0.0048));
#1962=CARTESIAN_POINT('',(0.007,-0.0005,-0.0048));
#1963=CARTESIAN_POINT('',(-0.0125,8.67361737988404E-19,-0.0158333333333334));
#1964=CARTESIAN_POINT('',(-0.0125,-0.0005,-0.0158333333333334));
#1965=CARTESIAN_POINT('',(-0.0125,-0.0005,-0.0158333333333334));
#1966=CARTESIAN_POINT('',(-0.0125,-0.0005,-0.0158333333333334));
#1967=CARTESIAN_POINT('',(-0.0156,-0.0005,-0.0117));
#1968=CARTESIAN_POINT('',(-0.0124754809471585,-0.0005,-0.0158660254037887));
#1969=CARTESIAN_POINT('',(-0.0124754809471585,-0.0005,-0.0158660254037887));
#1970=CARTESIAN_POINT('',(-0.0124754809471585,-0.0005,-0.0158660254037887));
#1971=CARTESIAN_POINT('',(-0.0151648351648345,0.00157026584202882,-0.0122802197802206));
#1972=CARTESIAN_POINT('',(-0.0097,-0.00263656622929695,-0.0195666666666666));
#1973=CARTESIAN_POINT('',(-0.0097,-0.00220355352740473,-0.0198166666666667));
#1974=CARTESIAN_POINT('',(-0.0100076923076923,-0.0023034795355337,-0.0199897435897436));
#1975=CARTESIAN_POINT('',(-0.0101,-0.00263656622929694,-0.0198666666666666));
#1976=CARTESIAN_POINT('',(-0.00957129974291649,-0.00230262703153945,-0.0199882670095119));
#1977=CARTESIAN_POINT('',(-0.00994679010880766,-0.00238320008322574,-0.0201278236287535));
#1978=CARTESIAN_POINT('',(-0.0100356498714418,-0.00273563973343164,-0.0199524668380776));
#1979=CARTESIAN_POINT('',(-0.00950000000003502,-0.00242612181183003,-0.0202021662434447));
#1980=CARTESIAN_POINT('',(-0.00994910413735695,-0.00247650189940772,-0.0202894271148198));
#1981=CARTESIAN_POINT('',(-0.01,-0.00285913451372178,-0.0200594164550562));
#1982=CARTESIAN_POINT('',(-0.0095,-0.00254996368891852,-0.0204166666666667));
#1983=CARTESIAN_POINT('',(-0.01,-0.00254996368891852,-0.0204166666666667));
#1984=CARTESIAN_POINT('',(-0.01,-0.00298297639081073,-0.0201666666666666));
#1985=CARTESIAN_POINT('',(-0.0095,-0.00298297639081074,-0.0201666666666666));
#1986=CARTESIAN_POINT('',(-0.0095,-0.00571548999000227,-0.0248995190528391));
#1987=CARTESIAN_POINT('',(-0.0095,-0.00768856620135548,-0.0283169872981082));
#1988=CARTESIAN_POINT('',(-0.008,-0.00768856620135456,-0.0283169872981066));
#1989=CARTESIAN_POINT('',(-0.008,-0.00843856620135458,-0.0296160254037833));
#1990=CARTESIAN_POINT('',(0.,-0.00843856620135616,-0.029616025403786));
#1991=CARTESIAN_POINT('',(0.008,-0.00843856620135616,-0.029616025403786));
#1992=CARTESIAN_POINT('',(0.008,-0.00768856620135589,-0.0283169872981089));
#1993=CARTESIAN_POINT('',(0.0095,-0.00768856620135566,-0.0283169872981085));
#1994=CARTESIAN_POINT('',(0.0095,-0.00571548999000227,-0.0248995190528391));
#1995=CARTESIAN_POINT('',(0.0095,-0.00298297639081095,-0.020166666666667));
#1996=CARTESIAN_POINT('',(0.0095,-0.00254996368891873,-0.0204166666666671));
#1997=CARTESIAN_POINT('',(0.01,-0.00254996368891873,-0.0204166666666671));
#1998=CARTESIAN_POINT('',(0.01,-0.00298297639081095,-0.020166666666667));
#1999=CARTESIAN_POINT('',(0.00950000000003502,-0.00242612181182968,-0.0202021662434441));
#2000=CARTESIAN_POINT('',(0.00994910413735701,-0.00247650189940792,-0.020289427114819));
#2001=CARTESIAN_POINT('',(0.01,-0.00285913451372186,-0.0200594164550554));
#2002=CARTESIAN_POINT('',(0.00957129974291642,-0.00230262703153972,-0.0199882670095124));
#2003=CARTESIAN_POINT('',(0.00994679010880763,-0.00238320008322586,-0.0201278236287524));
#2004=CARTESIAN_POINT('',(0.0100356498714417,-0.0027356397334319,-0.0199524668380781));
#2005=CARTESIAN_POINT('',(0.0097,-0.00220355352740494,-0.0198166666666671));
#2006=CARTESIAN_POINT('',(0.0100076923076923,-0.00230347953553392,-0.019989743589744));
#2007=CARTESIAN_POINT('',(0.0101,-0.00263656622929716,-0.019866666666667));
#2008=CARTESIAN_POINT('',(0.0097,-0.00263656622929717,-0.019566666666667));
#2009=CARTESIAN_POINT('',(0.00400904489520648,-0.0070174655115626,-0.0271546068063925));
#2010=CARTESIAN_POINT('',(0.0124754809471585,-0.0005,-0.0158660254037887));
#2011=CARTESIAN_POINT('',(0.0125,0.,-0.0158333333333334));
#2012=CARTESIAN_POINT('',(0.0125,-0.0005,-0.0158333333333334));
#2013=CARTESIAN_POINT('',(0.0124754809471585,-0.0005,-0.0158660254037887));
#2014=CARTESIAN_POINT('',(0.0124754809471585,-0.0005,-0.0158660254037887));
#2015=CARTESIAN_POINT('',(0.0125,-0.0005,-0.0158333333333334));
#2016=CARTESIAN_POINT('',(0.0125,-0.0005,-0.0158333333333334));
#2017=CARTESIAN_POINT('',(0.0156000000000003,-0.0005,-0.0116999999999991));
#2018=MECHANICAL_DESIGN_GEOMETRIC_PRESENTATION_REPRESENTATION('',(#1125),
#2019);
#2019=(
GEOMETRIC_REPRESENTATION_CONTEXT(3)
GLOBAL_UNCERTAINTY_ASSIGNED_CONTEXT((#2020))
GLOBAL_UNIT_ASSIGNED_CONTEXT((#2023,#2022,#2021))
REPRESENTATION_CONTEXT('OMX-AI_D405_Camera_Frame_Lightweight',
'TOP_LEVEL_ASSEMBLY_PART')
);
#2020=UNCERTAINTY_MEASURE_WITH_UNIT(LENGTH_MEASURE(2.E-5),#2023,
'DISTANCE_ACCURACY_VALUE','Maximum Tolerance applied to model');
#2021=(
NAMED_UNIT(*)
SI_UNIT($,.STERADIAN.)
SOLID_ANGLE_UNIT()
);
#2022=(
NAMED_UNIT(*)
PLANE_ANGLE_UNIT()
SI_UNIT($,.RADIAN.)
);
#2023=(
LENGTH_UNIT()
NAMED_UNIT(*)
SI_UNIT($,.METRE.)
);
#2024=PRODUCT_DEFINITION_SHAPE('','',#2025);
#2025=PRODUCT_DEFINITION('','',#2027,#2026);
#2026=PRODUCT_DEFINITION_CONTEXT('',#2033,'design');
#2027=PRODUCT_DEFINITION_FORMATION_WITH_SPECIFIED_SOURCE('','',#2029,
 .NOT_KNOWN.);
#2028=PRODUCT_RELATED_PRODUCT_CATEGORY('','',(#2029));
#2029=PRODUCT('OMX-AI_D405_Camera_Frame_Lightweight',
'OMX-AI_D405_Camera_Frame_Lightweight',
'OMX-AI_D405_Camera_Frame_Lightweight',(#2031));
#2030=PRODUCT_CATEGORY('','');
#2031=PRODUCT_CONTEXT('',#2033,'mechanical');
#2032=APPLICATION_PROTOCOL_DEFINITION('international standard',
'ap242_managed_model_based_3d_engineering',2020,#2033);
#2033=APPLICATION_CONTEXT('managed model based 3d engineering');
ENDSEC;
END-ISO-10303-21;
